<?xml version="1.0" encoding="UTF-8" standalone="no"?>
<svg
   version="1.1"
   width="1024"
   height="1024"
   viewBox="0 0 1024 1024"
   id="svg1"
   sodipodi:docname="favicon.svg"
   inkscape:version="1.4 (e7c3feb1, 2024-10-09)"
   xmlns:inkscape="http://www.inkscape.org/namespaces/inkscape"
   xmlns:sodipodi="http://sodipodi.sourceforge.net/DTD/sodipodi-0.dtd"
   xmlns="http://www.w3.org/2000/svg"
   xmlns:svg="http://www.w3.org/2000/svg">
  <defs
     id="defs1" />
  <sodipodi:namedview
     id="namedview1"
     pagecolor="#ffffff"
     bordercolor="#000000"
     borderopacity="0.25"
     inkscape:showpageshadow="2"
     inkscape:pageopacity="0.0"
     inkscape:pagecheckerboard="0"
     inkscape:deskcolor="#d1d1d1"
     showgrid="false"
     inkscape:zoom="0.70703125"
     inkscape:cx="438.45304"
     inkscape:cy="511.29282"
     inkscape:window-width="1920"
     inkscape:window-height="1026"
     inkscape:window-x="0"
     inkscape:window-y="25"
     inkscape:window-maximized="0"
     inkscape:current-layer="svg1" />
  <g
     id="g1"
     transform="matrix(1.5193507,0,0,1.5193507,-267.57229,-278.64937)">
    <path
       style="fill:#fcfaa6"
       d="m 292.47273,711.78003 c -0.26815,-0.70402 -0.37171,-53.14229 -0.23014,-116.5295 L 292.5,480.00106 l 11.7061,-5.38671 11.7061,-5.3867 0.2939,70.15877 0.2939,70.15877 3.28057,6.66223 c 3.99088,8.10471 11.02699,14.76013 19.0178,17.98883 L 344.5,636.5 l 165,0.29502 c 149.14328,0.26667 165.5847,0.14018 171.08416,-1.31616 11.17221,-2.95856 19.35771,-10.36209 23.39913,-21.16375 2.03833,-5.44793 2.05378,-6.52599 1.78641,-124.65528 L 705.5,370.5 l -2.3364,-5.7889 c -5.57148,-13.80444 -16.12537,-24.73237 -28.83937,-29.86148 L 668.5,332.5 l -83.72742,-0.27212 -83.72742,-0.27212 4.01928,-4.1416 c 2.21061,-2.27788 6.27527,-8.68043 9.03257,-14.22788 L 519.1103,303.5 l 76.19485,0.53052 c 85.10482,0.59256 80.55064,0.21677 96.19485,7.93753 18.36328,9.06268 29.82286,22.36677 36.63521,42.53195 l 2.36479,7 0.26896,175.75 0.26896,175.75 H 718.64741 706.2569 l -0.44314,-10.75535 c -0.36958,-8.97023 -0.87873,-11.66731 -3.06764,-16.25 -3.41312,-7.14568 -5.64131,-9.59202 -10.9175,-11.98638 -4.00313,-1.81664 -6.68084,-1.966 -35.61074,-1.98631 -33.9676,-0.0239 -35.1512,0.139 -40.6165,5.58804 -5.24888,5.23327 -7.69866,12.2504 -8.43699,24.16687 L 606.5,712.5 H 511 415.5 l -0.74801,-8.98723 c -1.36762,-16.43184 -5.8395,-25.83348 -14.06369,-29.56732 -3.81186,-1.73062 -6.8658,-1.9035 -33.97814,-1.92349 -27.69498,-0.0204 -30.06152,0.11664 -33.65327,1.94902 -8.67613,4.42623 -12.90251,13.19634 -13.9282,28.9023 L 318.5,712.5 l -12.76986,0.28003 c -9.66241,0.21188 -12.88851,-0.0315 -13.25741,-1 z m 25.78333,-10.42484 c 0.48746,-9.55108 0.88752,-11.31115 3.89361,-17.13005 4.6492,-8.99946 9.33065,-12.24496 19.0271,-13.19084 9.97351,-0.97292 55.03374,-0.28496 58.11702,0.8873 4.09517,1.55698 9.68113,7.0954 12.23057,12.12648 2.6212,5.17269 4.45629,14.49866 4.46809,22.70699 l 0.008,5.25508 94.75,-0.25508 94.75,-0.25507 0.57214,-9.5 c 0.69191,-11.48863 2.85211,-18.38323 7.43865,-23.74157 6.20176,-7.24536 7.73505,-7.50665 43.65878,-7.43995 29.64363,0.055 31.92066,0.1869 35.59468,2.06125 C 701.98293,677.58275 707,688.4113 707,703.60534 V 712 h 11.51645 11.51646 l -0.26646,-174.25 c -0.29889,-195.46385 0.3334,-179.32305 -7.62611,-194.67777 -8.7905,-16.95777 -22.8484,-28.30324 -43.64034,-35.22006 l -7,-2.32868 -76,-0.26188 -76,-0.26188 -3.33209,7.34396 c -1.83264,4.03918 -5.08823,9.66424 -7.23464,12.50014 L 505.03071,330 l 75.23464,0.0309 c 42.69052,0.0175 78.4743,0.45122 82.72398,1.00263 19.45699,2.52458 36.04732,16.95119 41.9358,36.46649 2.10532,6.97733 2.11129,7.38534 1.84351,126 l -0.26864,119 -2.77194,5.64286 c -3.3762,6.87297 -9.96348,13.13894 -17.55291,16.69673 L 680.5,637.5 H 512 343.5 l -6.65125,-3.15125 c -8.44084,-3.99913 -14.19837,-9.75666 -18.1975,-18.1975 L 315.5,609.5 315.21739,540.25 C 315.06195,502.1625 314.7847,471 314.60128,471 c -0.18342,0 -4.60831,2.025 -9.83309,4.5 -5.22477,2.475 -10.01003,4.5 -10.63389,4.5 -0.83918,0 -1.1343,30.0076 -1.1343,115.33333 0,63.43334 0.3,115.63334 0.66667,116 C 294.03333,711.7 299.59371,712 306.02305,712 h 11.68972 z m 29.97953,-81.3321 c -5.55887,-1.32208 -10.81833,-5.53577 -13.36444,-10.70711 L 332.5,604.5 l -0.22807,-72 -0.22807,-72 9.72807,-5.39478 c 12.28889,-6.8149 40.52151,-25.45599 54.55331,-36.01978 L 407.06507,411 h 75.31455 75.31456 l -2.43386,4.91793 c -2.41927,4.88847 -4.76741,17.98369 -3.44975,19.23872 0.37919,0.36116 7.16137,1.62691 15.07152,2.81277 29.9626,4.49188 46.59364,10.85463 59.02535,22.58208 18.22055,17.18834 20.80874,40.78687 8.51858,77.67052 -7.637,22.91919 -26.60379,56.37981 -42.10365,74.27798 l -6.92802,8 -116.94718,0.14973 c -64.32094,0.0824 -118.41615,-0.19964 -120.21158,-0.62664 z m 238.46267,-2.64251 c 19.8013,-21.36596 40.83421,-58.48305 48.88704,-86.2717 9.26806,-31.98213 6.48075,-53.1873 -9.00293,-68.49202 -12.20953,-12.06842 -26.32877,-17.82521 -55.74256,-22.72771 -10.0869,-1.68121 -18.94527,-3.64057 -19.68527,-4.35412 -1.72829,-1.66653 0.0176,-14.20514 2.75492,-19.78503 L 555.74908,412 H 481.7637 407.77832 l -12.63916,9.31821 C 379.46547,432.87363 356.78827,447.85805 343.25,455.60503 L 333,461.47038 v 69.08331 c 0,60.56201 0.19841,69.75327 1.60857,74.51481 2.02999,6.85447 7.51199,12.3945 13.61649,13.76063 2.57078,0.57531 50.47145,0.99938 120.16027,1.06378 L 584.27066,620 Z M 500.7601,602.50915 c -8.08981,-2.05518 -12.99609,-4.79865 -17.04867,-9.53318 -5.74737,-6.71451 -7.21146,-17.56763 -2.69589,-19.98429 C 482.13788,572.39103 496.48411,572 517.39907,572 556.89407,572 554,571.25149 554,581.46638 c 0,10.20251 -3.97212,15.47836 -14.7344,19.57051 -7.55968,2.87442 -29.65996,3.71943 -38.5055,1.47226 z m 30.72382,-0.57973 c 9.04117,-1.57445 16.49894,-5.62924 19.23339,-10.45718 2.53004,-4.46705 3.2,-15.15493 1.08269,-17.27224 -0.88652,-0.88652 -10.12835,-1.2 -35.37756,-1.2 -38.58214,0 -37.05197,-0.31991 -36.7423,7.68154 0.40923,10.57397 10.43238,19.1355 25.31986,21.62761 5.19679,0.86992 20.57398,0.64944 26.48392,-0.37973 z M 424,557.51101 c -9.3996,-2.1143 -21.98225,-8.6743 -28.87078,-15.05186 -19.32848,-17.89476 -24.96048,-45.38804 -13.92144,-67.95915 10.04312,-20.53481 30.07061,-34.3085 52.40799,-36.04304 34.60227,-2.68692 66.55514,26.09408 66.66018,60.04304 0.0534,17.26314 -5.64771,30.84937 -17.7819,42.37566 -8.53382,8.10629 -13.50533,11.20644 -23.5999,14.71651 -9.36974,3.25803 -25.09586,4.12281 -34.89415,1.91884 z m 32,-2.06791 c 9.7405,-2.897 19.00957,-8.48442 26.47705,-15.96045 C 494.09679,527.8496 499,515.93001 499,499.31575 c 0,-16.84151 -4.79646,-28.06058 -17.49567,-40.92288 -10.13061,-10.26072 -20.3126,-15.64494 -34.26137,-18.11736 -8.49616,-1.50595 -9.96794,-1.50982 -18.21588,-0.0479 -30.34339,5.37838 -52.01085,29.65921 -52.00043,58.27236 0.0103,28.3898 19.02446,51.51145 47.6485,57.94176 8.29841,1.86421 23.30797,1.38569 31.32485,-0.99866 z m 112.14516,-31.51305 c -7.40856,-2.96731 -13.11599,-11.43314 -13.13539,-19.48371 -0.0151,-6.26525 4.37317,-14.09164 9.88705,-17.63336 4.13097,-2.65344 5.28129,-2.92119 11.21353,-2.61007 8.26126,0.43327 12.97035,3.62647 16.48749,11.18006 2.78165,5.974 2.93345,8.46498 0.92749,15.21978 -3.22533,10.86087 -15.47643,17.294 -25.38017,13.3273 z m 14.83675,-1.92082 c 11.25606,-5.74242 14.13351,-21.11349 5.74163,-30.67132 -10.277,-11.70486 -28.26401,-6.68731 -31.74214,8.8546 -1.51813,6.78372 -0.13097,12.42861 4.29209,17.46619 5.67757,6.4664 14.2094,8.17624 21.70842,4.35053 z M 292.24675,412.24774 c 0.35997,-48.30988 0.47982,-51.07197 2.49493,-57.49711 7.41503,-23.64272 24.7245,-40.30312 50.75832,-48.85496 3.09701,-1.01734 20.98756,-1.43606 79.25037,-1.85482 41.3877,-0.29747 75.2502,-0.18542 75.25,0.24899 -10e-4,3.13989 -7.94178,15.29015 -14.68843,22.47625 L 480.39808,332 h -62.04249 c -58.68242,0 -62.34621,0.1045 -67.65066,1.92949 -3.08449,1.06123 -7.62928,3.11394 -10.09952,4.5616 -6.26351,3.67066 -15.86783,14.25682 -19.06392,21.01279 -4.97875,10.52421 -5.50526,15.8221 -5.52413,55.5856 L 316,451.67897 l -2.25,1.0637 c -1.2375,0.58503 -6.66706,3.13125 -12.06569,5.65825 l -9.81569,4.59455 z m 12.22772,43.6717 10.40179,-5.08056 0.33174,-39.66944 0.33175,-39.66944 2.65292,-6.87925 c 6.19432,-16.06236 15.95224,-25.58715 32.75923,-31.9766 5.39288,-2.05019 7.28774,-2.11787 67.72964,-2.41907 l 62.18155,-0.30988 5.31845,-5.78099 c 2.92515,-3.17955 7.01206,-8.67296 9.08201,-12.2076 L 499.0271,305.5 428.26355,305.22699 C 347.5095,304.91543 348.26472,304.857 332,312.67489 c -8.18108,3.93236 -10.75355,5.83379 -18.52915,13.69572 -6.90684,6.98353 -9.88753,10.89227 -12.68107,16.62939 -7.15936,14.70327 -7.08497,14.02382 -7.52682,68.75 -0.2187,27.0875 -0.12598,49.25 0.20605,49.25 0.33202,0 5.28448,-2.28625 11.00546,-5.08056 z M 332,426.55972 v -15.49164 l 24.45154,-0.28404 c 13.44834,-0.15622 24.13584,0.005 23.75,0.35819 -3.82429,3.50097 -37.61754,25.48555 -44.95154,29.24373 l -3.25,1.6654 z m 9.71453,8.79309 c 9.66761,-5.77065 33.20767,-21.41791 33.89524,-22.53042 C 375.88932,412.37007 366.41648,412 354.55902,412 H 333 v 14 c 0,7.7 0.20904,14 0.46453,14 0.25549,0 3.96799,-2.09124 8.25,-4.64719 z M 332.23077,385.25 c 0.72148,-15.18065 5.03274,-24.50947 14.45354,-31.27498 C 354.94851,348.04013 355.38206,348 411.24333,348 h 50.92546 l -22.83439,17.66917 c -12.55892,9.71804 -26.15493,20.29304 -30.21337,23.5 L 401.74207,395 h -34.98734 -34.98734 z m 79.89826,0.10827 C 425.3571,375.30517 451.14568,355.19991 455.5,351.54545 l 3,-2.51782 -50.5,0.23618 -50.5,0.23619 -5.71444,2.80615 c -11.60722,5.69988 -17.63303,16.2446 -18.54012,32.44385 l -0.51796,9.25 h 34.0153 34.01529 z M 430,394.16177 c 0,-0.46102 3.7125,-3.69728 8.25,-7.19169 15.34424,-11.81686 30.03366,-23.43476 39.50658,-31.24587 l 9.43009,-7.77579 89.15667,0.27579 L 665.5,348.5 l 6.4222,3.48111 c 4.76388,2.58222 7.53708,4.99556 10.73982,9.34618 5.23123,7.10612 7.25085,13.36822 8.03796,24.92271 l 0.59606,8.75 H 560.64802 C 488.79161,395 430,394.6228 430,394.16177 Z M 689.46546,385.25 c -1.15403,-14.1408 -5.88226,-23.9174 -14.63274,-30.25622 -8.5006,-6.1578 -5.78565,-5.99727 -100.76422,-5.95782 l -86.5685,0.036 -2.58598,2.21403 c -4.19596,3.59247 -25.4765,20.59829 -38.41402,30.69762 -6.6,5.15212 -12.65893,9.9635 -13.46429,10.69195 C 431.81958,393.77554 453.48457,394 560.87548,394 h 129.30406 z m 74.93953,-120.5 -1.90499,-2.25 2.25,1.90499 c 1.2375,1.04774 2.25,2.06024 2.25,2.25 0,0.80025 -0.80479,0.20945 -2.59501,-1.90499 z"
       id="path7" />
    <path
       style="fill:#fdd871"
       d="M 306,712.0473 293.5,711.5 293.24582,595.75 C 293.01653,491.33948 293.14477,480 294.55483,480 c 0.92696,0 1.27279,-0.4699 0.84968,-1.15451 -0.42666,-0.69035 -0.27587,-0.88402 0.37506,-0.48172 1.41573,0.87496 9.37593,-2.30314 8.66201,-3.4583 -0.3,-0.48541 0.22674,-0.58624 1.17053,-0.22408 1.25638,0.48212 1.49674,0.30375 0.89743,-0.66596 -0.53701,-0.8689 -0.43156,-1.08527 0.30658,-0.62907 0.61883,0.38245 2.43131,0.0199 4.02773,-0.80561 1.59642,-0.82554 3.18463,-1.21893 3.52937,-0.8742 0.34473,0.34473 0.63173,30.13928 0.63779,66.21012 0.0106,62.94654 0.30824,73.62209 2.02335,72.56209 0.42852,-0.26483 0.5252,0.48947 0.21486,1.67623 -0.42037,1.60751 -0.22969,1.95097 0.74776,1.34687 0.83662,-0.51705 1.07027,-0.41969 0.64482,0.2687 -0.79736,1.29016 1.32883,6.36563 2.39152,5.70885 0.40748,-0.25184 0.67918,0.32477 0.60378,1.28135 -0.0758,0.96193 0.45478,1.61644 1.18723,1.46446 0.72838,-0.15112 1.03625,0.19136 0.68414,0.76107 -0.83527,1.35151 5.15373,7.34051 6.50524,6.50524 0.56971,-0.35211 0.91219,-0.0442 0.76107,0.68414 -0.15198,0.73245 0.50253,1.26306 1.46446,1.18723 0.95658,-0.0754 1.52166,0.21495 1.25574,0.64522 -0.65625,1.06183 2.42083,2.16195 3.74977,1.34062 0.61087,-0.37754 0.77281,-0.18617 0.38012,0.44921 -0.43243,0.69969 1.23314,1.67634 4.527,2.65451 4.61229,1.3697 24.18018,1.54578 170.27963,1.53223 112.00205,-0.0104 164.58628,-0.34164 163.5685,-1.03038 -1.11828,-0.75675 -0.8137,-0.8559 1.19689,-0.38961 3.09564,0.71793 10.10055,-1.27441 9.26038,-2.63384 -0.30863,-0.49937 0.21105,-0.61163 1.15484,-0.24947 1.15641,0.44376 1.4825,0.28072 1,-0.5 -0.44056,-0.71283 -0.20868,-0.96381 0.60276,-0.65243 0.72531,0.27833 2.88618,-0.90164 4.80194,-2.62215 1.91575,-1.7205 2.58319,-2.51588 1.48319,-1.7675 -1.8328,1.24693 -1.88602,1.21531 -0.63669,-0.3783 0.74982,-0.95644 1.70217,-1.52956 2.11635,-1.27358 1.23997,0.76634 4.282,-3.25504 3.46379,-4.57893 -0.48197,-0.77985 -0.33454,-0.95922 0.41014,-0.49899 1.43998,0.88996 5.47424,-8.0479 4.79864,-10.63137 -0.25614,-0.9795 -0.0577,-1.52872 0.44103,-1.2205 1.01604,0.62794 1.29571,-232.36277 0.28499,-237.41641 -0.35504,-1.77517 -1.06479,-2.83496 -1.65451,-2.47049 -0.58112,0.35915 -0.73316,0.15351 -0.34765,-0.47024 0.91504,-1.48058 -0.35075,-6.3342 -1.47131,-5.64165 -0.48503,0.29976 -0.61991,-0.13764 -0.29973,-0.97202 0.71888,-1.87337 -6.27167,-13.63439 -7.91526,-13.31676 -0.65439,0.12646 -1.09515,-0.27899 -0.97948,-0.901 0.23284,-1.25209 -2.64135,-4.18601 -4.21031,-4.29781 -0.55,-0.0392 -1,-0.53767 -1,-1.10773 0,-1.33281 -2.65338,-2.98677 -3.72703,-2.32322 -0.45239,0.27959 -0.69887,-0.0876 -0.54775,-0.81598 0.15198,-0.73245 -0.50253,-1.26306 -1.46446,-1.18723 -0.95658,0.0754 -1.52802,-0.20466 -1.26987,-0.62236 0.89791,-1.45285 -11.36048,-6.05341 -18.65223,-7.00015 -4.06569,-0.52788 -40.97713,-0.96661 -82.76297,-0.98371 L 504.65137,330 l 2.27908,-2.42597 c 1.2535,-1.33429 1.97349,-2.92044 1.59999,-3.52478 -0.38111,-0.61665 -0.098,-0.97823 0.64523,-0.82403 0.73245,0.15198 1.26306,-0.50253 1.18723,-1.46446 -0.0754,-0.95658 0.26746,-1.48921 0.76192,-1.18362 0.49445,0.30559 2.58114,-3.07028 4.63709,-7.50195 l 3.73809,-8.05756 77.32368,0.0842 c 42.52803,0.0463 77.07872,0.32913 76.77932,0.62854 -0.29941,0.2994 3.17903,1.79558 7.72986,3.32483 4.55083,1.52925 9.92283,3.75315 11.93777,4.942 2.01495,1.18885 4.19789,1.83131 4.85097,1.42768 0.74743,-0.46194 0.92303,-0.30608 0.47389,0.42064 -0.64784,1.04824 0.59837,1.61825 2.72884,1.24815 0.45338,-0.0788 0.55328,0.29538 0.22199,0.83141 -0.75449,1.22079 2.87425,3.26121 4.0722,2.28977 0.48481,-0.39315 0.54588,-0.30422 0.1357,0.19762 -0.97477,1.19262 8.31224,10.64828 9.69016,9.86612 0.58059,-0.32957 0.73395,-0.2429 0.3408,0.1926 -0.89551,0.99197 1.03234,4.75965 2.09833,4.10084 0.43073,-0.26621 0.79702,0.0587 0.81396,0.72199 0.0492,1.92405 6.94486,14.73035 7.58633,14.08888 0.31938,-0.31938 0.3153,0.43418 -0.009,1.67459 -0.3253,1.24397 -0.18281,2.00377 0.31776,1.6944 0.49913,-0.30848 0.94293,0.63365 0.9862,2.09363 0.0433,1.45998 0.60238,5.57951 1.24245,9.15451 0.85489,4.77487 1.16577,51.81787 1.17132,177.25 L 730,712 H 718.5 707 v -7.875 c 0,-8.75242 -0.83381,-14.34574 -2.0285,-13.60739 -0.43174,0.26683 -0.53106,-0.48584 -0.22072,-1.6726 0.3838,-1.46765 0.19773,-1.93122 -0.5818,-1.44944 -0.72994,0.45112 -0.94072,0.17318 -0.58052,-0.76549 1.03542,-2.69826 -4.85456,-11.20169 -6.88833,-9.94475 -0.56099,0.34671 -0.7028,0.128 -0.31932,-0.49248 0.41323,-0.66862 -0.90971,-1.93219 -3.29935,-3.15129 -3.69269,-1.88387 -5.94358,-2.04385 -30.28532,-2.15252 -34.98459,-0.15617 -39.01321,-0.0493 -38.35378,1.0177 0.30822,0.49871 -0.41059,0.65282 -1.59735,0.34248 -1.46765,-0.3838 -1.93122,-0.19773 -1.44944,0.5818 0.47377,0.76658 0.1401,0.92803 -1.00768,0.48759 -1.25638,-0.48212 -1.49674,-0.30375 -0.89743,0.66596 0.55532,0.89851 0.43319,1.08628 -0.37976,0.58385 -1.49638,-0.92482 -4.31848,1.28637 -3.44518,2.6994 0.36593,0.59208 0.16181,0.7435 -0.47322,0.35103 -1.50505,-0.93018 -6.60201,6.87109 -5.82025,8.90832 0.3943,1.02752 0.20585,1.32999 -0.54103,0.8684 -0.77953,-0.48178 -0.9656,-0.0182 -0.5818,1.44944 0.31034,1.18676 0.18937,1.92605 -0.26884,1.64287 -0.87025,-0.53785 -1.83372,6.13011 -2.24139,15.51212 l -0.23899,5.5 -95,0.5 -95,0.5 -0.11464,-9 c -0.12705,-9.97466 -1.82507,-17.96431 -3.58654,-16.87567 -0.6362,0.3932 -0.82782,0.2316 -0.45008,-0.37958 0.93257,-1.50894 -0.34791,-4.3633 -1.60803,-3.5845 -0.63762,0.39407 -0.74989,0.16362 -0.28598,-0.587 0.92698,-1.49988 -4.29816,-7.28805 -5.76226,-6.38318 -0.55082,0.34042 -0.71093,0.14881 -0.3558,-0.4258 0.35513,-0.57462 -0.88943,-1.77322 -2.76569,-2.66357 -5.35778,-2.54243 -65.55962,-3.00937 -64.00655,-0.49645 0.29669,0.48006 -0.17105,0.6002 -1.03944,0.26697 -3.26079,-1.25128 -13.57927,8.11391 -11.91204,10.81153 0.45691,0.7393 0.241,0.84502 -0.62838,0.30771 -0.96971,-0.59931 -1.14808,-0.35895 -0.66596,0.89743 0.36216,0.94379 0.2499,1.46347 -0.24947,1.15484 -1.7862,-1.10393 -3.47139,7.13189 -3.51984,17.20211 -0.0271,5.63466 -0.0493,10.15595 -0.0493,10.0473 0,-0.10864 -5.625,-0.44382 -12.5,-0.74484 z m 108.07895,-10.63063 c 0.048,-1.16495 0.28494,-1.4019 0.60416,-0.60417 0.28887,0.72187 0.25335,1.58438 -0.0789,1.91667 -0.33229,0.33229 -0.56864,-0.25834 -0.52522,-1.3125 z M 348.22506,618.82913 C 342.12056,617.463 336.63856,611.92297 334.60857,605.0685 333.19834,600.30671 333,591.1094 333,530.47597 v -69.16103 l 3.43883,-1.85193 c 1.89136,-1.01857 3.17183,-2.28396 2.84549,-2.81198 -0.32633,-0.52803 -0.0831,-0.64471 0.5405,-0.25929 1.55592,0.9616 5.39375,-1.22906 4.54868,-2.59642 -0.40736,-0.65913 -0.22541,-0.82183 0.45132,-0.40358 1.4468,0.89416 5.42215,-1.18311 4.65125,-2.43046 -0.32759,-0.53005 0.16675,-0.65184 1.13604,-0.27989 1.07985,0.41438 1.4738,0.26664 1.0627,-0.39855 -0.37152,-0.60112 0.0969,-0.9979 1.08595,-0.91994 0.96193,0.0758 1.61644,-0.45478 1.46446,-1.18723 -0.15112,-0.72838 0.17841,-1.04425 0.7323,-0.70192 1.13694,0.70266 8.34114,-3.84175 7.4705,-4.7124 -0.30875,-0.30874 0.25615,-0.49385 1.25531,-0.41135 0.99917,0.0825 1.72182,-0.35956 1.60589,-0.98235 -0.11594,-0.6228 0.55906,-1.0728 1.5,-1 0.94093,0.0728 1.58713,-0.4636 1.436,-1.19198 -0.15112,-0.72838 0.17367,-1.04718 0.72176,-0.70844 1.21572,0.75136 6.22856,-2.37418 5.5552,-3.46371 -0.26436,-0.42774 0.302,-0.71602 1.25858,-0.64062 0.96193,0.0758 1.61644,-0.45478 1.46446,-1.18723 -0.15112,-0.72838 0.12572,-1.07681 0.61522,-0.77428 1.1139,0.68843 10.32735,-5.32088 9.7041,-6.32932 -0.25111,-0.40631 0.10001,-0.73874 0.78027,-0.73874 2.1861,0 6.681,-3.51187 6.00628,-4.69271 -0.35846,-0.62734 -0.29543,-0.81895 0.14007,-0.4258 1.17082,1.05697 4.69897,-1.13053 3.90234,-2.4195 -0.378,-0.61162 -0.23018,-0.82478 0.33131,-0.47776 0.5576,0.34462 2.76463,-0.69833 4.90451,-2.31767 l 3.89068,-2.94425 74.1422,-0.0278 74.1422,-0.0278 -1.93881,3.75 c -1.06635,2.0625 -1.75784,4.74888 -1.53666,5.96974 0.22119,1.22085 0.0778,2.01929 -0.31856,1.77431 -1.39864,-0.86441 -2.14047,10.78778 -0.77072,12.10608 1.1795,1.1352 34.84645,7.54072 40.94702,7.79063 1.46666,0.0601 2.46987,0.30603 2.22934,0.54656 -0.78182,0.78182 14.83399,6.03694 15.9861,5.37972 0.61484,-0.35073 0.78201,-0.26716 0.37148,0.18571 -0.94001,1.03697 5.02387,4.75282 6.33131,3.94478 0.53056,-0.3279 0.841,-2.4e-4 0.68988,0.72814 -0.15198,0.73245 0.50253,1.26306 1.46446,1.18723 0.95658,-0.0754 1.51379,0.22769 1.23824,0.67354 -0.27555,0.44584 0.8543,1.77568 2.51076,2.95519 1.65647,1.17951 3.01176,1.83382 3.01176,1.45402 0,-0.3798 0.67005,-0.13445 1.48899,0.54521 0.81894,0.67967 1.31546,1.52227 1.10336,1.87245 -0.6029,0.99544 7.05468,11.15633 7.82628,10.38473 0.37789,-0.3779 0.36182,0.16053 -0.0357,1.19649 -0.54171,1.41167 -0.39098,1.67849 0.60166,1.06501 0.88487,-0.54688 1.0858,-0.43241 0.60539,0.3449 -0.82846,1.34048 0.21586,5.37912 1.23204,4.76456 0.3729,-0.22552 0.87613,1.68045 1.11828,4.23548 0.98116,10.35236 0.22261,36.32566 -1.03888,35.57217 -0.94817,-0.56634 -3.11845,10.41313 -2.31523,11.71277 0.48215,0.78015 0.28597,0.89959 -0.58919,0.35872 -0.97745,-0.6041 -1.16813,-0.26064 -0.74776,1.34687 0.36157,1.38267 0.18197,1.92148 -0.5,1.5 -0.68197,-0.42148 -0.86158,0.11733 -0.5,1.5 0.36157,1.38267 0.18197,1.92148 -0.5,1.5 -0.68197,-0.42148 -0.86158,0.11733 -0.5,1.5 0.31034,1.18676 0.2139,1.94121 -0.21433,1.67655 -1.12308,-0.6941 -4.32188,8.20506 -3.45404,9.60926 0.42698,0.69086 0.29916,0.91306 -0.30901,0.53719 -1.29441,-0.79999 -5.61838,8.96226 -4.65794,10.51628 0.45593,0.73772 0.23939,0.84307 -0.62933,0.30617 -0.96971,-0.59931 -1.14808,-0.35895 -0.66596,0.89743 0.44376,1.15642 0.28071,1.48251 -0.5,1 -0.80077,-0.4949 -0.9353,-0.13437 -0.4357,1.16758 0.39754,1.03596 0.39615,1.55692 -0.003,1.15768 -1.06844,-1.06843 -7.62664,11.0629 -6.77793,12.53779 0.39532,0.68698 0.34948,0.91442 -0.10187,0.50542 -1.13653,-1.0299 -3.78178,2.97873 -2.90344,4.3999 0.42946,0.6949 0.27381,0.88167 -0.3919,0.47024 -1.30154,-0.8044 -3.57999,2.95722 -2.67659,4.41894 0.34131,0.55226 0.0246,0.88046 -0.70376,0.72934 -0.73245,-0.15198 -1.26306,0.50253 -1.18723,1.46446 0.0754,0.95658 -0.21288,1.52294 -0.64062,1.25858 -1.15873,-0.71613 -4.19094,4.37852 -3.38353,5.68493 0.41375,0.66946 0.24816,0.84944 -0.40827,0.44375 -1.28897,-0.79663 -3.47647,2.73152 -2.4195,3.90234 0.39315,0.4355 0.1749,0.48206 -0.48501,0.10348 -1.37287,-0.78761 -3.61194,2.68142 -2.51499,3.89652 0.39315,0.4355 0.18673,0.48937 -0.45871,0.11973 -1.38029,-0.7905 -5.61986,4.68704 -4.54692,5.87463 0.39625,0.4386 0.21435,0.5086 -0.40422,0.15556 -0.61858,-0.35303 -2.64358,1.14756 -4.5,3.33466 l -3.37533,3.97654 -116,-0.10207 c -69.78182,-0.0614 -117.70328,-0.48325 -120.27494,-1.05876 z M 527,602.95431 c -1.11224,-0.75267 -0.78742,-0.84951 1.25657,-0.37463 3.72625,0.86572 9.99618,-0.3617 9.11671,-1.78471 -0.41346,-0.669 -0.22387,-0.82067 0.48116,-0.38493 1.51851,0.93849 5.34277,-0.28193 4.60814,-1.47058 -0.31223,-0.5052 0.20369,-0.62102 1.14953,-0.25807 1.15641,0.44376 1.4825,0.28072 1,-0.5 -0.45158,-0.73067 -0.19744,-0.9595 0.6882,-0.61964 1.99031,0.76375 7.99735,-6.31548 7.3758,-8.69229 -0.26927,-1.02972 -0.0816,-1.62004 0.41715,-1.31182 1.25959,0.77847 1.14627,-11.24156 -0.12844,-13.62338 C 551.97204,572.07924 550.51497,572 517.39907,572 c -20.48435,0 -35.27057,0.39605 -36.34978,0.97362 -1.00058,0.53549 -2.11133,2.13744 -2.46834,3.55988 -0.76815,3.06054 0.29022,9.66416 1.43544,8.95637 0.4384,-0.27095 0.57247,0.36633 0.29793,1.41618 -0.67886,2.59595 8.87065,12.62068 11.1787,11.735 0.88597,-0.33998 1.35834,-0.20956 1.04971,0.28981 -0.72603,1.17475 6.07214,3.4309 8.05045,2.67176 0.83088,-0.31884 1.25469,-0.16549 0.9418,0.34078 -0.78585,1.27153 3.12086,1.73438 15.96502,1.89146 7.72353,0.0944 10.55321,-0.16783 9.5,-0.88055 z m 20,-7.33187 c 0,-0.20765 0.7875,-0.99515 1.75,-1.75 1.58606,-1.24387 1.62143,-1.2085 0.37756,0.37756 C 547.82119,595.91575 547,596.44548 547,595.62244 Z M 484.87244,593.25 c -1.24387,-1.58606 -1.2085,-1.62143 0.37756,-0.37756 0.9625,0.75485 1.75,1.54235 1.75,1.75 0,0.82304 -0.82119,0.29331 -2.12756,-1.37244 z m -5.79349,-13.83333 c 0.048,-1.16495 0.28494,-1.4019 0.60416,-0.60417 0.28887,0.72187 0.25335,1.58438 -0.0789,1.91667 -0.33229,0.33229 -0.56864,-0.25834 -0.52522,-1.3125 z m -25.3402,-21.97588 c 1.23132,-0.36749 1.94929,-1.13654 1.59549,-1.70899 -0.36394,-0.58887 -0.16192,-0.74333 0.46526,-0.35571 1.48058,0.91504 6.3342,-0.35075 5.64165,-1.47131 -0.29976,-0.48503 0.10972,-0.63062 0.90996,-0.32354 1.77322,0.68045 9.93,-3.31738 9.19497,-4.50668 -0.2885,-0.46681 0.2581,-0.78706 1.21468,-0.71166 0.96193,0.0758 1.61644,-0.45478 1.46446,-1.18723 -0.15112,-0.72838 0.11304,-1.08465 0.58704,-0.7917 1.30984,0.80953 5.31647,-2.36666 4.54996,-3.6069 -0.36918,-0.59735 -0.22057,-0.80756 0.33025,-0.46714 1.29796,0.80219 6.57669,-4.68313 5.57153,-5.78959 -0.4202,-0.46254 -0.23083,-0.53541 0.42082,-0.16193 1.54746,0.8869 6.73971,-5.86248 5.7464,-7.4697 -0.42418,-0.68633 -0.31765,-0.93656 0.24948,-0.58605 1.24744,0.77096 4.58819,-6.05857 3.68136,-7.52585 -0.42938,-0.69476 -0.19854,-0.79378 0.64096,-0.27495 0.97745,0.6041 1.16813,0.26064 0.74776,-1.34687 -0.31034,-1.18676 -0.17897,-1.91962 0.29195,-1.62858 1.13027,0.69854 2.37184,-6.0466 1.40188,-7.61603 -0.44424,-0.7188 -0.33698,-0.96189 0.26127,-0.59215 1.55188,0.95911 2.34852,-9.87979 1.27312,-17.32167 -0.51633,-3.57311 -0.94783,-6.86062 -0.95889,-7.30558 -0.0111,-0.44496 -0.53964,-0.48793 -1.17462,-0.0955 -0.6982,0.43152 -0.88373,0.2754 -0.4694,-0.39499 0.99426,-1.60875 -0.39452,-6.30714 -1.63727,-5.53908 -0.60752,0.37546 -0.75088,0.16711 -0.34116,-0.49584 0.83738,-1.3549 -2.26606,-8.36495 -3.39451,-7.66753 -0.42754,0.26424 -0.71565,-0.30223 -0.64025,-1.25881 0.0754,-0.95658 -0.40921,-1.63214 -1.07691,-1.50124 -0.66771,0.13091 -0.98822,-0.3504 -0.71225,-1.06957 0.6759,-1.76137 -12.0029,-15.13926 -13.48186,-14.22522 -0.62828,0.38831 -1.0179,0.19196 -0.86666,-0.43674 0.38465,-1.59888 -12.34127,-9.19994 -14.4766,-8.64673 -0.96326,0.24956 -1.52161,0.082 -1.24079,-0.37241 1.38201,-2.23614 -16.77005,-5.39105 -26.19871,-4.55345 -8.4567,0.75126 -17.61506,3.26208 -16.78682,4.60221 0.31987,0.51755 -0.0952,0.68131 -0.92233,0.3639 -1.78727,-0.68584 -11.77425,4.50901 -11.01869,5.73152 0.28743,0.46507 -0.0633,0.63281 -0.77934,0.37275 -0.71607,-0.26005 -3.55194,1.59736 -6.30194,4.12758 -2.75,2.53022 -4.1,3.98565 -3,3.23428 1.83346,-1.25236 1.88648,-1.22131 0.63669,0.37287 -0.74982,0.95644 -1.7387,1.50698 -2.19753,1.22341 -1.28497,-0.79416 -9.22917,10.25933 -8.37118,11.64759 0.44048,0.71271 0.31828,0.93775 -0.30129,0.55484 -1.32671,-0.81996 -5.56083,8.09832 -7.28065,15.33517 -0.71888,3.025 -1.28701,8.66486 -1.26249,12.53302 0.0505,7.97371 2.00333,18.75381 3.25689,17.97907 0.45817,-0.28317 0.57912,0.45614 0.26878,1.6429 -0.3838,1.46765 -0.19773,1.93122 0.5818,1.44944 0.73557,-0.4546 0.93901,-0.16872 0.56799,0.79816 -0.7325,1.90885 3.58472,9.7255 4.91679,8.90224 0.54627,-0.33762 0.70687,-0.15053 0.3569,0.41574 -1.49335,2.41629 14.19754,18.92694 16.97451,17.86132 0.73084,-0.28045 1.2217,0.0364 1.09079,0.7041 -0.1309,0.6677 0.54466,1.15232 1.50124,1.07691 0.98909,-0.078 1.45747,0.31882 1.08595,0.91994 -0.4111,0.66519 -0.0172,0.81293 1.0627,0.39855 0.94379,-0.36216 1.4702,-0.26079 1.16979,0.22528 -0.7026,1.13682 2.28825,2.30659 3.68707,1.44207 0.60192,-0.37201 0.77362,-0.18749 0.39524,0.42476 -0.80995,1.31052 2.87021,2.64725 4.50557,1.63654 0.69535,-0.42975 0.89493,-0.28457 0.49604,0.36085 -0.42299,0.6844 1.44316,1.51395 5.09549,2.26508 3.1696,0.65185 6.21291,1.35555 6.76291,1.56379 1.50805,0.57096 21.67307,-0.39322 24.23875,-1.15897 z M 393.40499,539.75 391.5,537.5 l 2.25,1.90499 c 2.11444,1.79022 2.70524,2.59501 1.90499,2.59501 -0.18976,0 -1.20226,-1.0125 -2.25,-2.25 z m 185.99952,-15.90451 c -0.46151,-0.74673 -0.27207,-0.88167 0.53633,-0.38205 1.57437,0.97301 6.20698,-1.41524 5.37052,-2.76866 -0.34121,-0.55209 -0.13713,-0.70513 0.45351,-0.3401 1.3228,0.81754 4.47624,-2.15554 3.66999,-3.46008 -0.32094,-0.51928 0.0124,-0.8205 0.74081,-0.66938 0.73245,0.15198 1.26306,-0.50253 1.18723,-1.46446 -0.0754,-0.95658 0.22549,-1.51515 0.66863,-1.24127 1.08745,0.67208 2.30582,-5.16463 1.38806,-6.6496 -0.45681,-0.73912 -0.29793,-0.91273 0.4259,-0.46538 0.76895,0.47523 1.14995,-0.22458 1.14086,-2.09549 -0.0206,-4.23018 -1.08484,-7.36618 -2.25455,-6.64326 -0.59459,0.36747 -0.74269,0.16088 -0.34544,-0.48188 1.07534,-1.73995 -1.99671,-6.7849 -5.98308,-9.82545 -2.72551,-2.07885 -5.03165,-2.8486 -9.50337,-3.17205 -6.17692,-0.4468 -12.36489,1.25225 -11.23269,3.08418 0.37036,0.59927 0.15707,0.73888 -0.50433,0.33011 -1.4967,-0.92501 -6.48723,4.06552 -5.56222,5.56222 0.41147,0.66577 0.2689,0.87453 -0.34018,0.4981 -1.36257,-0.84212 -4.2646,6.40758 -4.24684,10.60925 0.0195,4.61019 1.04186,7.81349 2.25455,7.064 0.59459,-0.36747 0.74269,-0.16088 0.34544,0.48188 -1.9422,3.14256 8.22811,13.22606 11.91353,11.81183 0.90945,-0.34899 1.31815,-0.1867 0.96575,0.3835 C 570.12073,524.61366 571.88216,525 575,525 c 3.61401,0 4.90835,-0.33927 4.40451,-1.15451 z m -23.32556,-17.42882 c 0.048,-1.16495 0.28494,-1.4019 0.60416,-0.60417 0.28887,0.72187 0.25335,1.58438 -0.0789,1.91667 -0.33229,0.33229 -0.56864,-0.25834 -0.52522,-1.3125 z M 293.01981,416.14421 c 0.0126,-28.45399 0.43177,-47.18276 1.15578,-51.64421 0.62478,-3.85 1.17837,-8.19453 1.23019,-9.65451 0.0518,-1.45998 0.43172,-2.44592 0.84422,-2.19098 0.4125,0.25494 0.76008,-0.12553 0.77241,-0.84549 0.0123,-0.71996 1.33082,-3.99045 2.93001,-7.26776 1.59918,-3.2773 2.64195,-6.4273 2.31726,-7 -0.32468,-0.57269 -0.22423,-0.7098 0.22324,-0.30469 1.09268,0.98928 5.60987,-5.23801 4.81353,-6.63582 -0.3449,-0.60541 -0.26215,-0.77045 0.1839,-0.36674 0.44605,0.4037 4.11955,-2.4088 8.16334,-6.25 4.04379,-3.84121 7.82754,-6.98401 8.40834,-6.98401 0.5808,0 0.771,-0.46115 0.42266,-1.02478 -0.34834,-0.56362 -0.25324,-0.90112 0.21133,-0.75 1.43148,0.46567 9.28215,-3.45153 8.72479,-4.35335 -0.28858,-0.46693 0.24751,-0.55264 1.1913,-0.19048 1.25638,0.48212 1.49674,0.30375 0.89743,-0.66596 -0.54688,-0.88487 -0.43241,-1.0858 0.3449,-0.60539 1.63536,1.01071 5.31552,-0.32602 4.50557,-1.63654 -0.39388,-0.63732 -0.20348,-0.79479 0.46298,-0.3829 0.6226,0.38479 4.49816,0.004 8.61235,-0.84549 C 355.77031,305.23658 367.76065,305 427.74356,305 c 69.58537,0 70.82787,0.0342 70.82787,1.95238 0,1.07381 -0.20196,1.75043 -0.44879,1.50359 -0.76724,-0.76724 -4.20095,5.60831 -3.57017,6.62893 0.3279,0.53056 2.4e-4,0.841 -0.72814,0.68988 -0.73245,-0.15198 -1.26306,0.50253 -1.18723,1.46446 0.0754,0.95658 -0.23952,1.50648 -0.69983,1.22199 -0.8251,-0.50994 -3.28987,3.09273 -3.44729,5.03877 -0.0445,0.55 -0.55912,0.90877 -1.14363,0.79727 -0.58451,-0.1115 -2.33574,1.126 -3.89164,2.75 L 480.62582,330 h -58.17334 c -58.06435,0 -67.97866,0.3396 -66.77493,2.28727 0.35787,0.57905 0.14016,0.7181 -0.50247,0.32093 -1.5796,-0.97624 -9.25131,1.45944 -8.48782,2.69479 0.34196,0.55331 0.14284,0.71004 -0.44251,0.34827 -1.50894,-0.93257 -4.3633,0.34791 -3.5845,1.60803 0.37463,0.60616 0.16965,0.75362 -0.48507,0.34897 -1.55592,-0.9616 -5.39375,1.22906 -4.54868,2.59642 0.39848,0.64475 0.22697,0.82279 -0.41212,0.42781 -2.4028,-1.48501 -16.15862,14.03069 -14.63084,16.50268 0.48697,0.78793 0.29005,0.90474 -0.59897,0.35529 -0.96971,-0.59931 -1.14808,-0.35895 -0.66596,0.89743 0.36216,0.94379 0.2499,1.46347 -0.24947,1.15484 -1.19375,-0.73777 -3.42398,6.0741 -2.48573,7.59223 0.42559,0.68862 0.29526,0.90809 -0.31521,0.5308 -0.57245,-0.3538 -1.39634,0.36417 -1.83087,1.59549 -0.43453,1.23131 -0.96349,20.08148 -1.17547,41.88925 l -0.38542,39.65051 -7.93974,3.9313 c -4.36686,2.16222 -7.61528,4.25578 -7.2187,4.65235 0.39657,0.39658 -0.12657,0.39579 -1.16253,-0.002 -1.07481,-0.41244 -1.63964,-0.32779 -1.31547,0.19715 0.31244,0.50597 -0.51374,0.98484 -1.83596,1.06415 L 293,460.78843 Z M 333,426.46862 c 0,-10.05521 0.32806,-13.65728 1.277,-14.02142 0.70235,-0.26952 10.48985,-0.36789 21.75,-0.21862 L 376.5,412.5 l -4.2336,2.87203 c -2.32848,1.57962 -4.02082,3.21631 -3.76076,3.6371 0.26006,0.42078 -0.30982,0.70337 -1.2664,0.62797 -0.95658,-0.0754 -1.65174,0.3504 -1.5448,0.94623 0.10695,0.59584 -0.34305,1.09347 -1,1.10586 -1.92674,0.0363 -8.73714,4.4327 -8.20371,5.2958 0.26826,0.43406 -0.29491,0.72751 -1.25149,0.65211 -1.06646,-0.0841 -1.6103,0.44313 -1.40591,1.3629 0.18334,0.825 0.0151,1.18178 -0.37382,0.79285 -1.10746,-1.10747 -8.63371,3.11628 -7.84032,4.4 0.41445,0.6706 0.2372,0.83643 -0.44401,0.41541 -1.55592,-0.9616 -5.39375,1.22906 -4.54868,2.59642 0.42074,0.68077 0.22284,0.82024 -0.51597,0.36363 -0.65916,-0.40738 -2.28786,-0.0269 -3.61932,0.84549 C 335.15974,439.28621 333.82953,440 333.53518,440 333.24083,440 333,433.91088 333,426.46862 Z m 0.15836,-42.86962 c 0.1879,-5.72056 0.63114,-10.22367 0.98497,-10.00692 0.96353,0.59025 2.02402,-4.49905 1.22694,-5.88807 -0.38001,-0.6622 -0.3198,-0.86754 0.13378,-0.4563 1.0162,0.92133 5.54883,-6.35314 4.75693,-7.63445 -0.3135,-0.50725 -0.11061,-0.63836 0.45086,-0.29135 1.26923,0.78443 4.5737,-2.70304 3.54034,-3.73639 -0.4137,-0.4137 -0.30218,-0.6137 0.24782,-0.44445 0.55,0.16926 3.7,-1.03074 7,-2.66666 l 6,-2.97441 50.5,-0.23619 50.5,-0.23618 -3,2.51008 c -1.65,1.38054 -2.87635,2.98277 -2.72522,3.56051 0.15112,0.57774 -0.13529,0.79701 -0.63648,0.48725 -1.23487,-0.76319 -13.72474,9.36006 -13.30497,10.7839 0.18334,0.62184 0.0117,0.80896 -0.38148,0.41581 -1.08066,-1.08065 -4.60924,1.15114 -3.82535,2.4195 0.38378,0.62096 0.22933,0.82425 -0.35287,0.46443 -1.22775,-0.75879 -8.8971,5.12228 -8.49885,6.51715 0.15112,0.52932 -0.13277,0.71052 -0.63088,0.40268 -1.23195,-0.76139 -8.728,5.34777 -8.31057,6.77299 0.18334,0.62594 0.0117,0.8164 -0.38148,0.42325 -1.08066,-1.08065 -4.60924,1.15114 -3.82535,2.4195 0.37763,0.61102 0.23024,0.82481 -0.32995,0.4786 -0.55685,-0.34416 -3.40765,1.16132 -6.33511,3.34549 L 400.63879,394 H 366.72776 332.81672 Z M 434.5,391.44014 c 1.65,-1.36836 2.87635,-2.96062 2.72522,-3.53836 -0.15112,-0.57774 0.18261,-0.76776 0.74164,-0.42226 1.39909,0.86468 9.12552,-5.50031 8.34314,-6.87303 -0.34686,-0.60857 -0.27434,-0.78482 0.16116,-0.39167 1.09945,0.99254 4.72337,-1.09104 3.98252,-2.28977 -0.33129,-0.53603 -0.18342,-0.85095 0.32859,-0.69983 1.58994,0.46929 10.28965,-6.29984 9.5775,-7.45212 -0.39665,-0.64179 -0.20241,-0.79388 0.47736,-0.37376 1.4454,0.89331 9.32382,-5.3299 8.47868,-6.69736 -0.34365,-0.55605 -0.17863,-0.73523 0.36671,-0.39819 1.4023,0.86667 5.49072,-2.21446 4.6797,-3.52672 -0.38183,-0.61781 -0.20997,-0.80101 0.3986,-0.42489 1.41842,0.87663 7.43101,-4.23278 6.58735,-5.59784 -0.36145,-0.58485 -0.21099,-0.78759 0.33435,-0.45055 1.14107,0.70521 5.56394,-2.096 4.9297,-3.12221 -0.23168,-0.37487 39.32329,-0.68158 87.89994,-0.68158 48.57664,0 88.11742,0.20375 87.8684,0.45278 -0.73979,0.73978 7.89298,2.9962 8.95408,2.3404 0.58403,-0.36095 0.64645,-0.0716 0.15582,0.72225 -0.59315,0.95974 -0.36363,1.14988 0.8335,0.6905 1.0186,-0.39088 1.56079,-0.16846 1.41404,0.58006 -0.1309,0.6677 0.54466,1.15232 1.50124,1.07691 0.95658,-0.0754 1.53295,0.19669 1.28082,0.60464 -0.59152,0.9571 3.91153,5.21408 4.80413,4.54161 0.37169,-0.28003 0.46664,-0.22498 0.21099,0.12233 -0.83155,1.12972 1.53307,4.44437 2.6695,3.74202 0.60739,-0.37538 0.82958,-0.23795 0.49376,0.30542 -0.62415,1.0099 3.65655,12.61616 4.39461,11.91509 0.22382,-0.21261 0.51237,3.84176 0.64121,9.00971 L 689.96853,394 560.73426,393.96404 431.5,393.92807 Z m -33.25,-88.18966 c 18.0125,-0.15279 47.4875,-0.15279 65.5,0 18.0125,0.15279 3.275,0.27781 -32.75,0.27781 -36.025,0 -50.7625,-0.12502 -32.75,-0.27781 z m 152,-3e-5 c 18.5625,-0.15238 48.9375,-0.15238 67.5,0 18.5625,0.15238 3.375,0.27706 -33.75,0.27706 -37.125,0 -52.3125,-0.12468 -33.75,-0.27706 z"
       id="path6" />
    <path
       style="fill:#d9a956"
       d="m 300.75,713.26276 c 2.8875,-0.202 7.6125,-0.202 10.5,0 2.8875,0.202 0.525,0.36728 -5.25,0.36728 -5.775,0 -8.1375,-0.16528 -5.25,-0.36728 z m 162.5,-0.0125 c 25.7125,-0.14851 67.7875,-0.14851 93.5,0 25.7125,0.14851 4.675,0.27002 -46.75,0.27002 -51.425,0 -72.4625,-0.12151 -46.75,-0.27002 z m 250.03651,0.01 c 3.18258,-0.19905 8.13258,-0.1972 11,0.004 2.86742,0.20131 0.26349,0.36417 -5.78651,0.36191 -6.05,-0.002 -8.39607,-0.16696 -5.21349,-0.36601 z M 414.27236,707 c 0,-2.475 0.19502,-3.4875 0.43337,-2.25 0.23836,1.2375 0.23836,3.2625 0,4.5 -0.23835,1.2375 -0.43337,0.225 -0.43337,-2.25 z m 290.88553,0 c 0,-1.375 0.22698,-1.9375 0.50439,-1.25 0.27741,0.6875 0.27741,1.8125 0,2.5 -0.27741,0.6875 -0.50439,0.125 -0.50439,-1.25 z m 0.11447,-7 c 0,-2.475 0.19502,-3.4875 0.43337,-2.25 0.23836,1.2375 0.23836,3.2625 0,4.5 -0.23835,1.2375 -0.43337,0.225 -0.43337,-2.25 z m -386.19341,-0.58333 c 0.048,-1.16495 0.28494,-1.4019 0.60416,-0.60417 0.28887,0.72187 0.25335,1.58438 -0.0789,1.91667 -0.33229,0.33229 -0.56864,-0.25834 -0.52522,-1.3125 z M 316.19495,599.5 c 0.0204,-1.65 0.2445,-2.20394 0.49804,-1.23097 0.25354,0.97297 0.23687,2.32297 -0.0371,3 -0.27393,0.67703 -0.48137,-0.11903 -0.46099,-1.76903 z M 482,539.5 c 1.29175,-1.375 2.57363,-2.5 2.84863,-2.5 0.275,0 -0.55688,1.125 -1.84863,2.5 -1.29175,1.375 -2.57363,2.5 -2.84863,2.5 -0.275,0 0.55688,-1.125 1.84863,-2.5 z M 593.15789,504 c 0,-1.375 0.22698,-1.9375 0.50439,-1.25 0.27741,0.6875 0.27741,1.8125 0,2.5 -0.27741,0.6875 -0.50439,0.125 -0.50439,-1.25 z m 48.92106,-5.58333 c 0.048,-1.16495 0.28494,-1.4019 0.60416,-0.60417 0.28887,0.72187 0.25335,1.58438 -0.0789,1.91667 -0.33229,0.33229 -0.56864,-0.25834 -0.52522,-1.3125 z m -311,-29 c 0.048,-1.16495 0.28494,-1.4019 0.60416,-0.60417 0.28887,0.72187 0.25335,1.58438 -0.0789,1.91667 -0.33229,0.33229 -0.56864,-0.25834 -0.52522,-1.3125 z M 435.75,439.29427 c 1.2375,-0.23836 3.2625,-0.23836 4.5,0 1.2375,0.23835 0.225,0.43337 -2.25,0.43337 -2.475,0 -3.4875,-0.19502 -2.25,-0.43337 z m 115.70888,-4.3608 c -0.36253,-0.58659 -0.44468,-1.281 -0.18255,-1.54313 0.26212,-0.26213 0.74306,0.21781 1.06875,1.06653 0.67618,1.76211 0.0998,2.07206 -0.8862,0.4766 z M 344.25,410.25323 c 6.4625,-0.17418 17.0375,-0.17418 23.5,0 6.4625,0.17419 1.175,0.3167 -11.75,0.3167 -12.925,0 -18.2125,-0.14251 -11.75,-0.3167 z m 101.5,-0.003 c 20.4875,-0.15109 54.0125,-0.15109 74.5,0 20.4875,0.1511 3.725,0.27472 -37.25,0.27472 -40.975,0 -57.7375,-0.12362 -37.25,-0.27472 z m -114.67105,-16.8337 c 0.048,-1.16495 0.28494,-1.4019 0.60416,-0.60417 0.28887,0.72187 0.25335,1.58438 -0.0789,1.91667 -0.33229,0.33229 -0.56864,-0.25834 -0.52522,-1.3125 z m 124.19008,-46.10966 c 0.97297,-0.25354 2.32297,-0.23687 3,0.0371 0.67703,0.27393 -0.11903,0.48137 -1.76903,0.46099 -1.65,-0.0204 -2.20394,-0.2445 -1.23097,-0.49804 z M 690.87244,346.25 c -1.24387,-1.58606 -1.2085,-1.62143 0.37756,-0.37756 1.66575,1.30637 2.19548,2.12756 1.37244,2.12756 -0.20765,0 -0.99515,-0.7875 -1.75,-1.75 z M 503,329.62244 c 0,-0.20765 0.7875,-0.99515 1.75,-1.75 1.58606,-1.24387 1.62143,-1.2085 0.37756,0.37756 C 503.82119,329.91575 503,330.44548 503,329.62244 Z m -139.23834,-26.3297 c 1.24391,-0.23919 3.04391,-0.23011 4,0.0202 0.95609,0.25029 -0.0617,0.446 -2.26166,0.4349 -2.2,-0.0111 -2.98225,-0.21589 -1.73834,-0.45508 z m 290.98834,0.045 c 0.6875,-0.27741 1.8125,-0.27741 2.5,0 0.6875,0.27741 0.125,0.50439 -1.25,0.50439 -1.375,0 -1.9375,-0.22698 -1.25,-0.50439 z m 20.5,-74.02705 c 0.9625,-0.25152 2.5375,-0.25152 3.5,0 0.9625,0.25153 0.175,0.45733 -1.75,0.45733 -1.925,0 -2.7125,-0.2058 -1.75,-0.45733 z"
       id="path5" />
    <path
       style="fill:#996b30"
       d="m 731.48832,544.5 c -2e-5,-91.3 0.11769,-128.79802 0.26158,-83.32894 0.14389,45.46908 0.14391,120.16908 4e-5,166 -0.14387,45.83092 -0.2616,8.62894 -0.26162,-82.67106 z m -412.23614,160 c 0.0111,-2.2 0.21589,-2.98225 0.45508,-1.73834 0.23919,1.24391 0.23011,3.04391 -0.0202,4 -0.25029,0.95609 -0.446,-0.0617 -0.4349,-2.26166 z M 352.25,636.31067 c 0.9625,-0.25152 2.5375,-0.25152 3.5,0 0.9625,0.25153 0.175,0.45733 -1.75,0.45733 -1.925,0 -2.7125,-0.2058 -1.75,-0.45733 z m 40.5625,0.006 c 0.72187,-0.28887 1.58438,-0.25335 1.91667,0.0789 0.33229,0.33229 -0.25834,0.56864 -1.3125,0.52522 -1.16495,-0.048 -1.4019,-0.28494 -0.60417,-0.60416 z m 35,0 c 0.72187,-0.28887 1.58438,-0.25335 1.91667,0.0789 0.33229,0.33229 -0.25834,0.56864 -1.3125,0.52522 -1.16495,-0.048 -1.4019,-0.28494 -0.60417,-0.60416 z m 30,0 c 0.72187,-0.28887 1.58438,-0.25335 1.91667,0.0789 0.33229,0.33229 -0.25834,0.56864 -1.3125,0.52522 -1.16495,-0.048 -1.4019,-0.28494 -0.60417,-0.60416 z m 4,0 c 0.72187,-0.28887 1.58438,-0.25335 1.91667,0.0789 0.33229,0.33229 -0.25834,0.56864 -1.3125,0.52522 -1.16495,-0.048 -1.4019,-0.28494 -0.60417,-0.60416 z m 123.4375,-0.006 c 0.9625,-0.25152 2.5375,-0.25152 3.5,0 0.9625,0.25153 0.175,0.45733 -1.75,0.45733 -1.925,0 -2.7125,-0.2058 -1.75,-0.45733 z m 16,0 c 0.9625,-0.25152 2.5375,-0.25152 3.5,0 0.9625,0.25153 0.175,0.45733 -1.75,0.45733 -1.925,0 -2.7125,-0.2058 -1.75,-0.45733 z m 8.51166,-0.0179 c 1.24391,-0.23919 3.04391,-0.23011 4,0.0202 0.95609,0.25029 -0.0617,0.446 -2.26166,0.4349 -2.2,-0.0111 -2.98225,-0.21589 -1.73834,-0.45508 z m 10.05084,0.0241 c 0.72187,-0.28887 1.58438,-0.25335 1.91667,0.0789 0.33229,0.33229 -0.25834,0.56864 -1.3125,0.52522 -1.16495,-0.048 -1.4019,-0.28494 -0.60417,-0.60416 z m 52,0 c 0.72187,-0.28887 1.58438,-0.25335 1.91667,0.0789 0.33229,0.33229 -0.25834,0.56864 -1.3125,0.52522 -1.16495,-0.048 -1.4019,-0.28494 -0.60417,-0.60416 z M 316.4711,533.5 c 1.1e-4,-35.2 0.12544,-49.45491 0.2785,-31.67757 0.15306,17.77734 0.15297,46.57734 -2.1e-4,64 C 316.59621,583.24509 316.47098,568.7 316.4711,533.5 Z m 14.99936,-0.5 c 0,-34.375 0.12555,-48.4375 0.27901,-31.25 0.15346,17.1875 0.15346,45.3125 0,62.5 -0.15346,17.1875 -0.27901,3.125 -0.27901,-31.25 z m 103.34204,24.31689 c 0.72187,-0.28887 1.58438,-0.25335 1.91667,0.0789 0.33229,0.33229 -0.25834,0.56864 -1.3125,0.52522 -1.16495,-0.048 -1.4019,-0.28494 -0.60417,-0.60416 z M 586,519.62244 c 0,-0.20765 0.7875,-0.99515 1.75,-1.75 1.58606,-1.24387 1.62143,-1.2085 0.37756,0.37756 C 586.82119,519.91575 586,520.44548 586,519.62244 Z m 56.07895,-24.20577 c 0.048,-1.16495 0.28494,-1.4019 0.60416,-0.60417 0.28887,0.72187 0.25335,1.58438 -0.0789,1.91667 -0.33229,0.33229 -0.56864,-0.25834 -0.52522,-1.3125 z M 316.36523,441.5 c 0.003,-5.5 0.17053,-7.62242 0.37317,-4.71648 0.20265,2.90594 0.20052,7.40594 -0.005,10 -0.20525,2.59406 -0.37104,0.21648 -0.36844,-5.28352 z m 15.03471,-15 c 10e-4,-8.25 0.15629,-11.49193 0.34419,-7.20429 0.1879,4.28763 0.18676,11.03763 -0.003,15 -0.1893,3.96236 -0.34304,0.45429 -0.34164,-7.79571 z m -15.32099,-9.08333 c 0.048,-1.16495 0.28494,-1.4019 0.60416,-0.60417 0.28887,0.72187 0.25335,1.58438 -0.0789,1.91667 -0.33229,0.33229 -0.56864,-0.25834 -0.52522,-1.3125 z M 331.27236,388 c 0,-2.475 0.19502,-3.4875 0.43337,-2.25 0.23836,1.2375 0.23836,3.2625 0,4.5 -0.23835,1.2375 -0.43337,0.225 -0.43337,-2.25 z m -15.19341,-5.58333 c 0.048,-1.16495 0.28494,-1.4019 0.60416,-0.60417 0.28887,0.72187 0.25335,1.58438 -0.0789,1.91667 -0.33229,0.33229 -0.56864,-0.25834 -0.52522,-1.3125 z M 386.25,347.25096 c 12.5125,-0.15868 32.9875,-0.15868 45.5,0 12.5125,0.15868 2.275,0.28851 -22.75,0.28851 -25.025,0 -35.2625,-0.12983 -22.75,-0.28851 z m 144.07498,-7.3e-4 c 23.55374,-0.1495 61.80374,-0.14944 85,1.2e-4 23.19626,0.14957 3.92502,0.27189 -42.82498,0.27182 -46.75,-7e-5 -65.72876,-0.12244 -42.17502,-0.27194 z m 269.75397,-2.83356 c 0.048,-1.16495 0.28494,-1.4019 0.60416,-0.60417 0.28887,0.72187 0.25335,1.58438 -0.0789,1.91667 -0.33229,0.33229 -0.56864,-0.25834 -0.52522,-1.3125 z M 658.8125,303.31689 c 0.72187,-0.28887 1.58438,-0.25335 1.91667,0.0789 0.33229,0.33229 -0.25834,0.56864 -1.3125,0.52522 -1.16495,-0.048 -1.4019,-0.28494 -0.60417,-0.60416 z M 402.82742,229.25011 c 33.73008,-0.14605 88.63008,-0.14602 122,7e-5 33.36992,0.14608 5.77258,0.26557 -61.32742,0.26554 -67.1,-3e-5 -94.40266,-0.11956 -60.67258,-0.26561 z m 203.92258,9.8e-4 c 11.6875,-0.15998 30.8125,-0.15998 42.5,0 11.6875,0.15998 2.125,0.29087 -21.25,0.29087 -23.375,0 -32.9375,-0.13089 -21.25,-0.29087 z"
       id="path4" />
    <path
       style="fill:#72491e"
       d="m 319.07895,709.41667 c 0.048,-1.16495 0.28494,-1.4019 0.60416,-0.60417 0.28887,0.72187 0.25335,1.58438 -0.0789,1.91667 -0.33229,0.33229 -0.56864,-0.25834 -0.52522,-1.3125 z m 288,-10 c 0.048,-1.16495 0.28494,-1.4019 0.60416,-0.60417 0.28887,0.72187 0.25335,1.58438 -0.0789,1.91667 -0.33229,0.33229 -0.56864,-0.25834 -0.52522,-1.3125 z m -243.8727,-63.15722 c 3.68844,-0.19186 9.98844,-0.19314 14,-0.003 4.01156,0.1903 0.99375,0.34727 -6.70625,0.34883 -7.7,0.002 -10.98219,-0.15414 -7.29375,-0.34599 z m 25.54375,0.0783 c 0.6875,-0.27741 1.8125,-0.27741 2.5,0 0.6875,0.27741 0.125,0.50439 -1.25,0.50439 -1.375,0 -1.9375,-0.22698 -1.25,-0.50439 z m 10.0625,-0.0208 c 0.72187,-0.28887 1.58438,-0.25335 1.91667,0.0789 0.33229,0.33229 -0.25834,0.56864 -1.3125,0.52522 -1.16495,-0.048 -1.4019,-0.28494 -0.60417,-0.60416 z m 4,0 c 0.72187,-0.28887 1.58438,-0.25335 1.91667,0.0789 0.33229,0.33229 -0.25834,0.56864 -1.3125,0.52522 -1.16495,-0.048 -1.4019,-0.28494 -0.60417,-0.60416 z m 7.4375,-0.0519 c 2.6125,-0.206 6.8875,-0.206 9.5,0 2.6125,0.206 0.475,0.37454 -4.75,0.37454 -5.225,0 -7.3625,-0.16854 -4.75,-0.37454 z m 29.51166,0.0278 c 1.24391,-0.23919 3.04391,-0.23011 4,0.0202 0.95609,0.25029 -0.0617,0.446 -2.26166,0.4349 -2.2,-0.0111 -2.98225,-0.21589 -1.73834,-0.45508 z m 11.05084,0.0241 c 0.72187,-0.28887 1.58438,-0.25335 1.91667,0.0789 0.33229,0.33229 -0.25834,0.56864 -1.3125,0.52522 -1.16495,-0.048 -1.4019,-0.28494 -0.60417,-0.60416 z m 4,0 c 0.72187,-0.28887 1.58438,-0.25335 1.91667,0.0789 0.33229,0.33229 -0.25834,0.56864 -1.3125,0.52522 -1.16495,-0.048 -1.4019,-0.28494 -0.60417,-0.60416 z m 18.9375,-0.0628 c 5.6375,-0.17825 14.8625,-0.17825 20.5,0 5.6375,0.17825 1.025,0.32409 -10.25,0.32409 -11.275,0 -15.8875,-0.14584 -10.25,-0.32409 z m 35.02643,0.0124 c 2.35204,-0.21124 5.95204,-0.20827 8,0.007 2.04796,0.21487 0.12357,0.38771 -4.27643,0.38408 -4.4,-0.004 -6.07561,-0.17944 -3.72357,-0.39069 z m 24.03092,-0.014 c 6.76904,-0.17326 17.56904,-0.17273 24,10e-4 6.43096,0.17391 0.89265,0.31567 -12.30735,0.31502 -13.2,-6.6e-4 -18.46169,-0.14295 -11.69265,-0.31621 z m 39.96908,0.014 c 2.35204,-0.21124 5.95204,-0.20827 8,0.007 2.04796,0.21487 0.12357,0.38771 -4.27643,0.38408 -4.4,-0.004 -6.07561,-0.17944 -3.72357,-0.39069 z m 22.47357,0.0442 c 0.9625,-0.25152 2.5375,-0.25152 3.5,0 0.9625,0.25153 0.175,0.45733 -1.75,0.45733 -1.925,0 -2.7125,-0.2058 -1.75,-0.45733 z m 29,-0.0269 c 1.5125,-0.22913 3.9875,-0.22913 5.5,0 1.5125,0.22912 0.275,0.41659 -2.75,0.41659 -3.025,0 -4.2625,-0.18747 -2.75,-0.41659 z m 9.5,0.054 c 0.6875,-0.27741 1.8125,-0.27741 2.5,0 0.6875,0.27741 0.125,0.50439 -1.25,0.50439 -1.375,0 -1.9375,-0.22698 -1.25,-0.50439 z m 6.5,-0.054 c 1.5125,-0.22913 3.9875,-0.22913 5.5,0 1.5125,0.22912 0.275,0.41659 -2.75,0.41659 -3.025,0 -4.2625,-0.18747 -2.75,-0.41659 z m 17,-0.0188 c 2.6125,-0.206 6.8875,-0.206 9.5,0 2.6125,0.206 0.475,0.37454 -4.75,0.37454 -5.225,0 -7.3625,-0.16854 -4.75,-0.37454 z M 411.67293,621.2502 c 31.44511,-0.14658 83.19511,-0.14661 115,-7e-5 31.80489,0.14654 6.07707,0.26647 -57.17293,0.26651 -63.25,3e-5 -89.27218,-0.11986 -57.82707,-0.26644 z M 520.8125,602.31689 c 0.72187,-0.28887 1.58438,-0.25335 1.91667,0.0789 0.33229,0.33229 -0.25834,0.56864 -1.3125,0.52522 -1.16495,-0.048 -1.4019,-0.28494 -0.60417,-0.60416 z M 331.19495,597.5 c 0.0204,-1.65 0.2445,-2.20394 0.49804,-1.23097 0.25354,0.97297 0.23687,2.32297 -0.0371,3 -0.27393,0.67703 -0.48137,-0.11903 -0.46099,-1.76903 z M 489.25,573.25845 c 3.7125,-0.19241 9.7875,-0.19241 13.5,0 3.7125,0.19241 0.675,0.34983 -6.75,0.34983 -7.425,0 -10.4625,-0.15742 -6.75,-0.34983 z m 30.0491,-0.004 c 4.83951,-0.18371 12.48951,-0.18277 17,0.002 4.5105,0.18485 0.5509,0.33516 -8.7991,0.33401 -9.35,-10e-4 -13.0404,-0.1524 -8.2009,-0.3361 z m 26.96993,0.0523 c 0.97297,-0.25354 2.32297,-0.23687 3,0.0371 0.67703,0.27393 -0.11903,0.48137 -1.76903,0.46099 -1.65,-0.0204 -2.20394,-0.2445 -1.23097,-0.49804 z M 316.19495,429.5 c 0.0204,-1.65 0.2445,-2.20394 0.49804,-1.23097 0.25354,0.97297 0.23687,2.32297 -0.0371,3 -0.27393,0.67703 -0.48137,-0.11903 -0.46099,-1.76903 z m 0.0572,-7 c 0.0111,-2.2 0.21589,-2.98225 0.45508,-1.73834 0.23919,1.24391 0.23011,3.04391 -0.0202,4 -0.25029,0.95609 -0.446,-0.0617 -0.4349,-2.26166 z m -0.0572,-9 c 0.0204,-1.65 0.2445,-2.20394 0.49804,-1.23097 0.25354,0.97297 0.23687,2.32297 -0.0371,3 -0.27393,0.67703 -0.48137,-0.11903 -0.46099,-1.76903 z m 0.19677,-16.5 c 0,-7.425 0.15742,-10.4625 0.34983,-6.75 0.19241,3.7125 0.19241,9.7875 0,13.5 -0.19241,3.7125 -0.34983,0.675 -0.34983,-6.75 z m 414.80323,-20.5 c 0.0204,-1.65 0.2445,-2.20394 0.49804,-1.23097 0.25354,0.97297 0.23687,2.32297 -0.0371,3 -0.27393,0.67703 -0.48137,-0.11903 -0.46099,-1.76903 z M 311,325.62244 c 0,-0.20765 0.7875,-0.99515 1.75,-1.75 1.58606,-1.24387 1.62143,-1.2085 0.37756,0.37756 C 311.82119,325.91575 311,326.44548 311,325.62244 Z M 709.87244,324.25 c -1.24387,-1.58606 -1.2085,-1.62143 0.37756,-0.37756 1.66575,1.30637 2.19548,2.12756 1.37244,2.12756 -0.20765,0 -0.99515,-0.7875 -1.75,-1.75 z"
       id="path3" />
    <path
       style="fill:#232322"
       d="m 338.8125,794.31689 c 0.72187,-0.28887 1.58438,-0.25335 1.91667,0.0789 0.33229,0.33229 -0.25834,0.56864 -1.3125,0.52522 -1.16495,-0.048 -1.4019,-0.28494 -0.60417,-0.60416 z m 6,0 c 0.72187,-0.28887 1.58438,-0.25335 1.91667,0.0789 0.33229,0.33229 -0.25834,0.56864 -1.3125,0.52522 -1.16495,-0.048 -1.4019,-0.28494 -0.60417,-0.60416 z m 16.45653,-0.01 c 0.97297,-0.25354 2.32297,-0.23687 3,0.0371 0.67703,0.27393 -0.11903,0.48137 -1.76903,0.46099 -1.65,-0.0204 -2.20394,-0.2445 -1.23097,-0.49804 z m 50.55656,-0.0568 c 25.47907,-0.14865 66.87907,-0.1486 92,10e-5 25.12092,0.14871 4.27441,0.27033 -46.32559,0.27027 -50.6,-5e-5 -71.15349,-0.12172 -45.67441,-0.27037 z m 163.49431,4.2e-4 c 14.20094,-0.15657 37.15094,-0.15643 51,3.1e-4 13.84905,0.15675 2.2301,0.28484 -25.8199,0.28467 -28.05,-1.7e-4 -39.38105,-0.12842 -25.1801,-0.28498 z m 84.88635,0.009 c 3.68844,-0.19186 9.98844,-0.19314 14,-0.003 4.01156,0.1903 0.99375,0.34727 -6.70625,0.34883 -7.7,0.002 -10.98219,-0.15414 -7.29375,-0.34599 z m -334.6215,-2.36607 c -8.77215,-1.27942 -20.03501,-4.55652 -29.30545,-8.52686 -4.52139,-1.93642 -8.69504,-3.22761 -9.27478,-2.86931 -0.57974,0.3583 -0.93042,0.19632 -0.7793,-0.35996 0.39012,-1.43594 -15.08585,-11.34142 -16.42569,-10.51336 -0.6147,0.37991 -0.82992,0.2343 -0.48311,-0.32685 0.64944,-1.05082 -13.91548,-14.76239 -15.76624,-14.84249 -0.5776,-0.025 -0.91891,-0.64383 -0.75846,-1.37516 0.389,-1.77311 -2.7876,-5.19997 -4.07988,-4.4013 -0.57237,0.35375 -0.71773,0.14045 -0.33086,-0.48551 0.90579,-1.46559 -6.33081,-12.34162 -7.66366,-11.51787 -0.56448,0.34887 -0.73527,0.16336 -0.37953,-0.41225 0.35575,-0.57561 -0.85622,-4.35764 -2.69327,-8.40451 -5.02387,-11.06722 -7.6557,-19.29034 -9.71615,-30.35795 -1.77715,-9.54587 -1.85045,-18.03806 -1.61398,-187 l 0.24771,-177 2.27664,-9.93186 c 2.57584,-11.23713 7.06838,-23.5762 11.3914,-31.28732 1.60929,-2.87055 2.63241,-5.6942 2.2736,-6.27478 -0.35882,-0.58057 -0.0564,-0.93194 0.67193,-0.78082 0.73245,0.15198 1.26306,-0.50253 1.18723,-1.46446 -0.0754,-0.95658 0.22769,-1.51379 0.67354,-1.23824 1.21569,0.75134 5.20126,-5.32889 4.37229,-6.6702 -0.41267,-0.66771 -0.28383,-0.89316 0.30311,-0.53041 1.14066,0.70497 4.5357,-2.57929 4.07988,-3.94675 -0.16045,-0.48134 0.15828,-1.00438 0.70828,-1.16231 1.77134,-0.50864 9.40212,-8.48955 9.19771,-9.61973 -0.10874,-0.60122 0.42111,-0.96185 1.17745,-0.8014 1.81231,0.38445 5.25417,-2.77344 4.44675,-4.07988 -0.36966,-0.59811 -0.1347,-0.71417 0.56739,-0.28026 1.33376,0.82431 4.3622,-1.21563 3.61045,-2.43198 -0.26302,-0.42559 0.30443,-0.7121 1.26101,-0.6367 0.96193,0.0758 1.61644,-0.45478 1.46446,-1.18723 -0.15112,-0.72838 0.15634,-1.05789 0.68326,-0.73223 1.29527,0.80052 14.24069,-6.39306 13.5413,-7.5247 -0.30451,-0.49271 0.0605,-0.66018 0.81102,-0.37216 0.75057,0.28803 4.49545,-0.80859 8.32196,-2.43691 8.00396,-3.40599 20.46196,-6.57398 31.7396,-8.07119 C 336.47097,231.35496 397.74244,231 510.57894,231 c 148.50466,0 172.8043,0.20401 181.67764,1.52527 12.09075,1.80035 27.60316,5.85236 33.0576,8.63501 2.13385,1.08861 4.53447,1.72804 5.33471,1.42096 0.80024,-0.30708 1.22072,-0.17929 0.9344,0.28399 -0.70115,1.13448 4.28327,3.33527 5.64615,2.49297 0.69157,-0.42741 0.78538,-0.1912 0.26102,0.65723 -0.59931,0.96971 -0.35895,1.14808 0.89743,0.66596 0.94379,-0.36216 1.46481,-0.25207 1.15782,0.24465 -0.73949,1.19653 6.1204,5.39835 7.46083,4.56992 0.57366,-0.35454 0.91936,-0.0487 0.76824,0.67971 -0.15198,0.73245 0.50253,1.26306 1.46446,1.18723 0.95658,-0.0754 1.52369,0.21167 1.26024,0.63794 -0.75684,1.2246 8.34646,8.21241 9.64951,7.40708 0.64909,-0.40116 0.89209,-0.28341 0.55171,0.26735 -0.61862,1.00094 10.05091,12.24032 10.75056,11.32473 0.21014,-0.275 0.75707,-0.0904 1.21541,0.41033 0.48416,0.52889 0.30957,0.60891 -0.41667,0.19098 -2.06281,-1.1871 -1.43059,0.29125 1.89351,4.42765 1.72894,2.15142 3.59846,3.63051 4.15451,3.28685 0.557,-0.34424 0.70594,-0.13124 0.33168,0.47434 -0.37363,0.60453 0.68098,3.30993 2.34357,6.01198 3.86673,6.28424 10.47545,20.45969 12.08187,25.91512 0.683,2.31949 1.5125,4.04996 1.84334,3.84549 0.33083,-0.20446 0.64225,0.82277 0.69203,2.28275 0.0498,1.45998 0.83728,7.26405 1.75,12.89793 1.49982,9.25782 1.65949,26.78076 1.65949,182.11901 0,188.83663 0.29755,179.172 -6.10512,198.30077 -1.71884,5.13524 -4.43885,11.94218 -6.04448,15.12654 -1.60562,3.18436 -2.60928,6.29139 -2.23035,6.90451 0.38739,0.62681 0.23972,0.83712 -0.33737,0.48046 -1.33285,-0.82375 -8.56945,10.05228 -7.66366,11.51787 0.3795,0.61404 0.25181,0.84563 -0.28374,0.51463 -0.91829,-0.56753 -14.83528,13.89291 -14.83528,15.41458 0,0.39135 -0.40965,1.08654 -0.91033,1.54488 -0.52889,0.48416 -0.60891,0.30957 -0.19098,-0.41667 0.39564,-0.6875 0.46839,-1.25 0.16167,-1.25 -1.25594,0 -12.47066,9.33613 -12.04399,10.02649 0.25416,0.41123 -0.32055,0.68601 -1.27713,0.61061 -0.96193,-0.0758 -1.61644,0.45478 -1.46446,1.18723 0.15112,0.72838 -0.16716,1.0512 -0.70731,0.71737 -0.54014,-0.33383 -4.61134,1.2178 -9.04712,3.44807 -12.93027,6.50121 -23.07725,9.79449 -38.40134,12.46345 -7.80854,1.35999 -30.45058,1.53205 -187.5,1.42484 -98.24046,-0.0671 -181.28087,-0.51018 -184.53426,-0.98468 z M 319.96482,713.0658 C 320.53417,712.0019 321,707.80857 321,703.74724 c 0,-8.10223 2.01641,-16.32734 5.33141,-21.74724 1.1774,-1.925 2.147,-3.725 2.15466,-4 0.008,-0.275 0.3444,-0.38984 0.74832,-0.2552 0.40391,0.13463 2.20391,-0.65118 4,-1.74627 3.06732,-1.87016 5.07396,-1.99128 33.04773,-1.99479 32.10217,-0.004 33.92109,0.24735 38.61324,5.33656 1.31745,1.42893 2.84948,2.3174 3.40451,1.97437 0.55503,-0.34303 0.73128,-0.17409 0.39166,0.37542 -0.33961,0.54951 0.27232,3.34086 1.35984,6.20299 1.13723,2.99293 2.24198,9.11329 2.60026,14.4054 0.34261,5.06084 1.02699,9.98902 1.52083,10.95152 0.84566,1.64816 6.44988,1.75 96.30602,1.75 h 95.40811 l 1.55671,-2.22251 c 1.08663,-1.55138 1.56656,-4.64655 1.58935,-10.25 0.0226,-5.56569 0.6606,-9.71418 2.0803,-13.52749 1.12621,-3.025 2.10795,-6.25446 2.18164,-7.17658 0.0737,-0.92212 0.42741,-1.49523 0.78605,-1.27358 0.35864,0.22165 1.49971,-0.5485 2.53571,-1.71144 4.04882,-4.54488 6.45352,-4.8384 39.63964,-4.8384 30.49392,0 31.43773,0.0594 35.77405,2.25 8.03221,4.05775 11.96996,13.18057 11.96996,27.7315 0,5.36994 0.45231,9.07081 1.2,9.8185 0.80288,0.80288 5.25885,1.2 13.46482,1.2 11.16858,0 12.35881,-0.17563 13.31646,-1.96502 0.72698,-1.35838 0.96815,-55.77034 0.7812,-176.25 -0.30049,-193.64334 0.27586,-177.44441 -6.8587,-192.7705 -3.13337,-6.73094 -10.41506,-17.17739 -11.67966,-16.75585 -0.39827,0.13275 -0.86869,-0.20863 -1.04538,-0.75863 -0.58453,-1.81951 -3.39795,-4.42414 -4.54781,-4.21031 -0.62201,0.11567 -1.02869,-0.3214 -0.90374,-0.97126 0.49722,-2.58595 -12.79263,-10.63508 -24.67633,-14.94548 -11.40675,-4.1374 -18.59834,-4.45553 -93.95825,-4.15639 l -71.40739,0.28344 -4.59261,9.10097 c -2.52594,5.00553 -5.19385,9.82332 -5.9287,10.7062 -0.73485,0.88287 -1.00282,2.14446 -0.59549,2.80353 0.42813,0.69273 0.31806,0.93717 -0.26089,0.57937 -1.51008,-0.93329 -6.67557,4.90845 -5.96881,6.75023 0.53537,1.39515 9.27905,1.56242 82.8799,1.58552 l 82.28138,0.0258 6.99396,2.38243 c 3.84668,1.31033 7.40371,2.12918 7.90451,1.81967 0.5008,-0.30951 0.58946,-0.0432 0.19702,0.59176 -0.39244,0.63498 -0.30205,1.15451 0.20087,1.15451 0.50291,0 3.84453,2.68494 7.42581,5.96654 3.58129,3.28159 6.75137,5.72659 7.04463,5.43333 0.29326,-0.29326 0.4657,0.2843 0.3832,1.28346 -0.0825,0.99917 0.31607,1.73631 0.88571,1.6381 0.56965,-0.0982 1.08347,0.57678 1.14184,1.5 0.0584,0.92321 1.39229,4.60357 2.96428,8.17857 l 2.85817,6.5 v 121 121 l -2.29331,4.29506 c -3.53453,6.61968 -8.82786,11.87042 -15.04533,14.92425 L 680.5,634.5 l -166,0.26784 c -164.24757,0.265 -166.07056,0.24644 -172.68346,-1.75858 -3.67591,-1.11452 -8.0542,-3.1798 -9.72953,-4.5895 -1.78582,-1.50266 -3.5717,-2.26025 -4.31654,-1.8311 -0.69876,0.40259 -0.93512,0.362 -0.52525,-0.0902 0.40986,-0.45221 -0.40626,-2.33186 -1.81361,-4.17699 -1.40735,-1.84513 -3.54269,-5.48478 -4.74521,-8.08811 -2.17398,-4.70645 -2.18801,-5.13381 -2.46892,-75.21586 -0.15538,-38.76538 -0.64264,-70.84264 -1.08278,-71.28278 -1.12666,-1.12666 -4.26257,0.24938 -3.47445,1.52459 0.35682,0.57735 0.1785,0.75909 -0.39627,0.40386 -1.2001,-0.7417 -21.38937,7.95103 -22.49867,9.68707 -0.40408,0.63238 -0.74158,53.08935 -0.75,116.57104 -0.0141,106.01056 0.11963,115.57036 1.63968,117.25 1.43924,1.59035 3.32485,1.82874 14.46481,1.82874 11.64125,0 12.90427,-0.17645 13.84502,-1.93426 z M 607.15789,703 c 0,-1.375 0.22698,-1.9375 0.50439,-1.25 0.27741,0.6875 0.27741,1.8125 0,2.5 -0.27741,0.6875 -0.50439,0.125 -0.50439,-1.25 z m -22.65081,-80.98855 c -0.33603,-0.5437 -0.006,-0.75649 0.73287,-0.47287 1.363,0.52304 6.45435,-5.32928 5.97055,-6.86291 -0.14303,-0.45338 0.16506,-0.56159 0.68465,-0.24047 1.25326,0.77456 5.25847,-4.37761 4.43672,-5.70725 -0.35249,-0.57033 -0.17142,-0.74682 0.40236,-0.3922 1.38217,0.85422 6.57882,-6.0202 5.66664,-7.49614 -0.41536,-0.67207 -0.27102,-0.87739 0.34789,-0.49488 1.37593,0.85037 8.58816,-9.99057 7.65307,-11.50358 -0.41812,-0.67652 -0.27231,-0.87914 0.35405,-0.49203 1.99804,1.23486 17.29976,-27.64462 23.64237,-44.6211 6.66155,-17.83014 9.0081,-29.45269 9.03044,-44.72802 0.0172,-11.77991 -0.27337,-14.23414 -2.28076,-19.26187 -1.38939,-3.47988 -2.72754,-5.49795 -3.37873,-5.09549 -0.63379,0.39171 -0.78938,0.19902 -0.37746,-0.46746 0.89416,-1.4468 -1.18311,-5.42215 -2.43046,-4.65125 -0.5161,0.31897 -0.68142,-0.0897 -0.36737,-0.90806 1.29109,-3.36452 -19.66474,-20.9262 -22.71852,-19.03886 -0.69667,0.43057 -0.92044,0.30491 -0.5434,-0.30517 1.79395,-2.90266 -24.37108,-10.62029 -44.83199,-13.22363 -13.20208,-1.67977 -13.5,-1.77552 -13.5,-4.3389 0,-1.23893 0.93592,-5.39286 2.07983,-9.23095 1.14391,-3.8381 2.14034,-7.73372 2.21429,-8.65693 0.0739,-0.92322 0.60052,-1.59822 1.17017,-1.5 C 559.03393,412.41964 559.5,411.825 559.5,411 c 0,-1.31798 -9.25575,-1.53109 -76.27677,-1.75625 l -76.27678,-0.25626 -8.72322,6.60373 c -4.79778,3.63205 -8.59958,7.04331 -8.44845,7.58058 0.15112,0.53727 -0.17674,0.69781 -0.72858,0.35675 -1.34823,-0.83325 -7.13209,3.52346 -6.35242,4.78499 0.33838,0.54751 0.17162,0.72131 -0.37057,0.38621 -1.32325,-0.81781 -32.53552,19.73351 -31.57618,20.79094 0.41413,0.45648 0.19156,0.50693 -0.4946,0.11212 -1.55313,-0.89365 -12.35365,5.4244 -11.53559,6.74805 0.32687,0.52889 0.0668,0.63344 -0.58057,0.23336 -0.64501,-0.39864 -2.73954,0.24353 -4.65451,1.42705 L 330,460.16312 v 70.23694 c 0,79.77817 -0.20493,77.44765 7.48636,85.13893 7.76877,7.76877 -0.29497,7.31317 130.82266,7.39136 76.73357,0.0457 116.5994,-0.26951 116.19806,-0.9189 z m -81.30163,-22.12654 c -2.91201,-0.48471 -7.13571,-1.77083 -9.38601,-2.85806 -2.2503,-1.08722 -4.59275,-1.69089 -5.20545,-1.34149 -0.61269,0.34941 -0.77237,0.25903 -0.35484,-0.20085 0.82639,-0.9102 -3.14408,-5.67366 -4.19022,-5.02711 -0.3522,0.21767 -0.70738,-0.3587 -0.78929,-1.28082 -0.0819,-0.92212 -0.57545,-3.63025 -1.09674,-6.01807 -1.89781,-8.69301 -4.46196,-8.07309 34.67723,-8.38365 L 551.5,574.5 l -0.52543,7 c -0.61295,8.16585 -1.75711,10.60062 -6.49423,13.81957 -1.90834,1.29675 -3.2846,2.54284 -3.05836,2.76908 0.22625,0.22624 -0.56365,0.46947 -1.75531,0.54051 -1.19167,0.071 -4.86667,0.63093 -8.16667,1.24421 -6.91958,1.28594 -20.60469,1.29153 -28.29455,0.0115 z M 424.3334,554.50032 c -3.39163,-0.73738 -7.1393,-1.86126 -8.32814,-2.49751 -1.18885,-0.63625 -2.82475,-0.90232 -3.63534,-0.59127 -0.94609,0.36305 -1.21743,0.15075 -0.75781,-0.59293 0.4825,-0.78072 0.15641,-0.94376 -1,-0.5 -1.15642,0.44376 -1.48251,0.28071 -1,-0.5 0.4949,-0.80077 0.13437,-0.9353 -1.16758,-0.4357 -1.03596,0.39754 -1.58199,0.42122 -1.2134,0.0526 0.36859,-0.36859 -1.89665,-2.55975 -5.03388,-4.86925 C 386.95656,533.34673 379,517.834 379,499.33912 c 0,-10.61451 1.2851,-16.39062 5.51887,-24.80549 1.88498,-3.74651 3.18091,-7.21038 2.87985,-7.69751 -0.30106,-0.48712 -0.17643,-0.79743 0.27695,-0.68959 0.45338,0.10785 4.01714,-2.99024 7.91945,-6.88465 8.15315,-8.13663 17.42368,-13.32548 29.17919,-16.33204 12.64868,-3.23498 25.31154,-1.88592 37.99085,4.04745 3.54216,1.65757 6.85521,2.75733 7.36234,2.44391 0.50713,-0.31342 0.7984,-0.15886 0.64728,0.34347 -0.44091,1.46554 6.05764,6.45694 7.35926,5.65249 0.67488,-0.4171 0.90952,-0.29667 0.55129,0.28297 -0.80188,1.29748 3.69081,5.56533 4.79918,4.55902 0.45988,-0.41753 0.53599,-0.23475 0.16913,0.40618 -0.36686,0.64093 0.39414,2.44093 1.6911,4 1.29697,1.55907 2.89756,3.85977 3.55686,5.11268 0.6638,1.26142 1.69157,1.97343 2.30308,1.59549 0.61803,-0.38196 0.82442,-0.2296 0.46869,0.34599 -0.34961,0.56568 0.54856,3.89771 1.99594,7.40451 3.13637,7.59898 4.33402,23.96173 2.41157,32.94769 -4.32554,20.2185 -22.81641,37.80049 -44.60957,42.41687 -8.49842,1.8002 -18.8911,1.8047 -27.13791,0.0118 z m 29.13102,-13.48858 c 1.9547,-0.64511 3.30148,-1.5815 2.99285,-2.08088 -0.30863,-0.49937 0.1258,-0.64434 0.96541,-0.32216 1.8228,0.69948 8.83224,-3.38722 8.03161,-4.68266 -0.30699,-0.49672 0.0589,-0.66634 0.8131,-0.37693 2.20717,0.84697 11.514,-9.86405 15.02383,-17.29058 2.89098,-6.11711 3.19481,-7.66013 3.20145,-16.25853 0.007,-9.58786 -2.50221,-19.73017 -4.56636,-18.45445 -0.49687,0.30708 -0.67182,-0.0452 -0.38877,-0.78278 1.26012,-3.28383 -13.15638,-19.50675 -16.27217,-18.31111 -0.76215,0.29247 -1.09232,0.0774 -0.74466,-0.48518 0.96086,-1.55469 -9.18931,-5.74453 -17.27581,-7.13122 -12.29335,-2.10807 -26.60531,1.53004 -36.33555,9.23654 -2.15537,1.70708 -3.62219,3.58381 -3.2596,4.1705 0.37912,0.61343 0.18863,0.77585 -0.44828,0.38222 -1.62531,-1.0045 -8.67804,8.41293 -11.32594,15.12339 -2.996,7.59264 -3.2589,21.46254 -0.54038,28.50848 1.00933,2.61602 2.24168,4.50515 2.73854,4.19806 0.49687,-0.30708 0.60708,0.21387 0.24492,1.15766 -0.48212,1.25638 -0.30375,1.49674 0.66596,0.89743 0.88859,-0.54918 1.08592,-0.43262 0.59965,0.35419 -1.57408,2.54692 9.03618,15.10694 11.48388,13.59418 0.79368,-0.49052 0.98719,-0.35639 0.53691,0.37218 -0.8622,1.39506 3.87977,4.42115 11.39499,7.27172 9.63671,3.65526 23.01022,4.0301 32.46442,0.90993 z M 433.5,515.10215 c -1.65,-0.42216 -4.35106,-1.47178 -6.00236,-2.33248 -13.15753,-6.85807 -12.27337,-26.45328 1.51574,-33.59264 6.24417,-3.23294 15.21919,-2.62963 21.26712,1.42959 2.32072,1.55762 4.59045,2.72219 5.04383,2.58793 0.45338,-0.13426 0.54749,0.20383 0.20913,0.75131 -0.33836,0.54747 0.0782,2.33627 0.92567,3.97511 2.33853,4.52222 1.99585,13.49719 -0.69838,18.29093 -3.82244,6.80111 -14.21077,10.94989 -22.26075,8.89025 z m 4.25,-59.76443 c 0.6875,-0.27741 1.8125,-0.27741 2.5,0 0.6875,0.27741 0.125,0.50439 -1.25,0.50439 -1.375,0 -1.9375,-0.22698 -1.25,-0.50439 z m 129.97629,65.07788 c -1.52554,-0.82738 -3.32554,-1.18721 -4,-0.79964 -0.67446,0.38758 -0.89269,0.33645 -0.48497,-0.11363 1.01424,-1.11957 -1.21311,-3.6378 -2.50914,-2.83681 -0.57266,0.35392 -0.77096,0.20624 -0.44067,-0.32818 0.3303,-0.53443 -0.0915,-2.96646 -0.9374,-5.40451 -1.90503,-5.49093 -1.19113,-11.84708 1.88834,-16.81263 1.23482,-1.99111 2.15307,-3.90476 2.04056,-4.25255 -0.11252,-0.3478 0.56527,-0.5728 1.50621,-0.5 0.94093,0.0728 1.62368,-0.35396 1.51722,-0.94834 -0.12903,-0.72036 2.53843,-0.9878 8,-0.8021 9.12153,0.31015 11.80296,0.60672 11.17383,1.23586 -0.23348,0.23347 0.67612,1.7325 2.02131,3.33118 9.41986,11.19486 1.63142,29.89778 -12.39946,29.77571 -2.53117,-0.022 -5.85029,-0.71698 -7.37583,-1.54436 z M 295.41247,463.39522 c 0.86682,-0.33264 1.33026,-1.00248 1.02985,-1.48855 -0.30041,-0.48607 0.0695,-0.64748 0.82211,-0.35869 0.75257,0.28878 5.61344,-1.62887 10.80194,-4.26146 L 317.5,452.5 l 0.54255,-40 c 0.57766,-42.58924 0.893,-45.41937 6.0533,-54.32677 1.06001,-1.82972 1.62756,-3.81175 1.26121,-4.40451 -0.36634,-0.59275 -0.22402,-0.80453 0.31628,-0.47061 0.54029,0.33392 2.70138,-1.44939 4.80242,-3.9629 2.10104,-2.51352 6.43534,-6.26036 9.63178,-8.32632 3.19645,-2.06596 5.5061,-4.06191 5.13257,-4.43545 -0.37353,-0.37353 0.002,-0.4177 0.83489,-0.0982 0.83272,0.31954 3.46308,-0.10668 5.84525,-0.94715 C 355.62693,334.22034 365.18384,334 418.19996,334 h 61.94851 l 5.96133,-5.68614 c 3.48573,-3.32483 5.74367,-6.25332 5.43721,-7.05194 -0.28825,-0.75119 -0.11367,-1.11213 0.38798,-0.8021 1.10154,0.68079 3.88724,-3.13121 7.43676,-10.17658 C 503.97369,301.14895 511.05579,302 430.44155,302 c -47.52856,0 -73.97342,0.37339 -78.75,1.11191 -8.35007,1.29103 -17.9693,4.62967 -17.15148,5.95292 0.31009,0.50175 -0.0994,0.65776 -0.90999,0.34671 -1.98092,-0.76015 -5.86099,1.40582 -5.00358,2.79314 0.40736,0.65913 0.22541,0.82183 -0.45132,0.40358 -1.37832,-0.85184 -5.43969,1.15474 -4.71395,2.32901 0.28449,0.46031 -0.26541,0.77523 -1.22199,0.69983 -0.96193,-0.0758 -1.61644,0.45478 -1.46446,1.18723 0.1542,0.74322 -0.20738,1.02634 -0.82403,0.64523 -1.38771,-0.85765 -6.1058,3.47055 -5.26542,4.83031 0.34303,0.55503 0.1643,0.72523 -0.39717,0.37822 -0.99212,-0.61316 -3.81917,1.80569 -4.4669,3.82191 -0.17669,0.55 -0.63306,0.89607 -1.01415,0.76904 -1.38738,-0.46246 -7.00395,7.4232 -10.84826,15.23096 -7.40099,15.03132 -7.31224,14.23351 -7.71702,69.37164 -0.19935,27.15441 -0.12443,49.99191 0.16648,50.75 0.56402,1.46984 2.43572,1.75918 5.00416,0.77358 z m 38.81275,-21.24329 c -0.15112,-0.71532 0.17708,-1.02133 0.72934,-0.68002 1.35346,0.83649 5.25221,-1.32834 4.52151,-2.51063 -0.31897,-0.5161 0.0128,-0.71091 0.73728,-0.4329 1.8398,0.70599 20.97331,-11.41734 20.14204,-12.76236 -0.39024,-0.63143 -0.19566,-0.78534 0.47154,-0.37298 1.44355,0.89216 13.29532,-7.38621 12.47493,-8.71364 -0.33598,-0.54363 -0.10711,-0.67707 0.5086,-0.29654 1.18589,0.73292 9.18954,-4.05445 9.18954,-5.49669 0,-1.66404 -4.8173,-1.94597 -28.5,-1.66793 l -24,0.28176 -0.27393,17.32269 -0.27392,17.32268 2.27392,-0.34642 c 1.25066,-0.19054 2.15028,-0.9317 1.99915,-1.64702 z m 69.569,-46.72035 c 1.23158,-0.86263 2.02651,-1.91263 1.7665,-2.33334 -0.26001,-0.4207 0.10243,-0.76491 0.80543,-0.76491 1.7405,0 12.725,-8.37683 12.16745,-9.27896 -0.24509,-0.39657 0.12187,-0.72104 0.81546,-0.72104 2.066,0 21.64719,-15.53038 20.9676,-16.62998 -0.35218,-0.56984 -0.13016,-0.70612 0.50792,-0.31177 1.43565,0.88729 14.32647,-9.33815 13.48621,-10.69773 -0.34895,-0.56462 -0.11895,-0.69332 0.52634,-0.29451 1.59325,0.98468 9.15322,-5.2609 8.48281,-7.00798 -0.44647,-1.16348 -8.91006,-1.39045 -51.67693,-1.38578 -49.24445,0.005 -59.65414,0.54935 -58.11667,3.03704 0.31764,0.51396 -0.0961,0.67598 -0.9194,0.36004 -3.20648,-1.23044 -17.32274,11.2896 -16.15627,14.32938 0.26254,0.68418 -0.0196,1.13687 -0.62701,1.00596 -3.00854,-0.64837 -7.61921,25.14049 -5.48779,30.69488 0.53028,1.38188 4.77489,1.56712 35.91024,1.56712 30.4518,0 35.61691,-0.21575 37.54811,-1.56842 z M 691.78183,395.75 c 0.67156,-0.81761 0.75566,-4.96621 0.24311,-11.99321 -0.62051,-8.50721 -1.33123,-11.86253 -3.41478,-16.12115 -4.60121,-9.40455 -14.61684,-18.98562 -17.79404,-17.022 -0.66937,0.4137 -0.84801,0.24698 -0.44099,-0.41159 0.43243,-0.69969 -1.23314,-1.67634 -4.527,-2.65451 C 661.31946,346.20267 649.25651,346 573.73862,346 h -86.89839 l -9.67011,8.09739 c -5.31857,4.45356 -9.54647,8.53701 -9.39534,9.07433 0.15112,0.53732 -0.11858,0.73383 -0.59935,0.4367 -1.09465,-0.67653 -9.35046,5.29936 -8.72323,6.31423 0.2529,0.40921 -0.13792,0.74402 -0.8685,0.74402 -2.09163,0 -13.61254,9.47764 -12.90755,10.61835 0.34808,0.5632 0.18667,0.74823 -0.35867,0.41119 -1.4023,-0.86667 -5.49072,2.21446 -4.6797,3.52672 0.40954,0.66266 0.20405,0.79735 -0.52708,0.34549 -1.49638,-0.92482 -4.31848,1.28637 -3.44518,2.6994 0.35392,0.57266 0.19113,0.76162 -0.36176,0.41991 -1.16561,-0.72038 -7.85257,3.92643 -7.70376,5.35338 0.055,0.52739 0.1675,1.40889 0.25,1.95889 0.2413,1.60866 262.6093,1.36014 263.93183,-0.25 z M 800.25218,679.5 c 0.0111,-2.2 0.21589,-2.98225 0.45508,-1.73834 0.23919,1.24391 0.23011,3.04391 -0.0202,4 -0.25029,0.95609 -0.446,-0.0617 -0.4349,-2.26166 z M 224.232,679 c 0,-1.925 0.2058,-2.7125 0.45733,-1.75 0.25152,0.9625 0.25152,2.5375 0,3.5 -0.25153,0.9625 -0.45733,0.175 -0.45733,-1.75 z m 0,-42 c 0,-1.925 0.2058,-2.7125 0.45733,-1.75 0.25152,0.9625 0.25152,2.5375 0,3.5 -0.25153,0.9625 -0.45733,0.175 -0.45733,-1.75 z m -0.037,-7.5 c 0.0204,-1.65 0.2445,-2.20394 0.49804,-1.23097 0.25354,0.97297 0.23687,2.32297 -0.0371,3 -0.27393,0.67703 -0.48137,-0.11903 -0.46099,-1.76903 z m 0.037,-16.5 c 0,-1.925 0.2058,-2.7125 0.45733,-1.75 0.25152,0.9625 0.25152,2.5375 0,3.5 -0.25153,0.9625 -0.45733,0.175 -0.45733,-1.75 z m 0,-8 c 0,-1.925 0.2058,-2.7125 0.45733,-1.75 0.25152,0.9625 0.25152,2.5375 0,3.5 -0.25153,0.9625 -0.45733,0.175 -0.45733,-1.75 z m 0,-8 c 0,-1.925 0.2058,-2.7125 0.45733,-1.75 0.25152,0.9625 0.25152,2.5375 0,3.5 -0.25153,0.9625 -0.45733,0.175 -0.45733,-1.75 z m 0.0677,-9 c 0,-3.025 0.18747,-4.2625 0.41659,-2.75 0.22913,1.5125 0.22913,3.9875 0,5.5 -0.22912,1.5125 -0.41659,0.275 -0.41659,-2.75 z m 575.85823,0 c 0,-1.375 0.22698,-1.9375 0.50439,-1.25 0.27741,0.6875 0.27741,1.8125 0,2.5 -0.27741,0.6875 -0.50439,0.125 -0.50439,-1.25 z m 0,-6 c 0,-1.375 0.22698,-1.9375 0.50439,-1.25 0.27741,0.6875 0.27741,1.8125 0,2.5 -0.27741,0.6875 -0.50439,0.125 -0.50439,-1.25 z m -575.90571,-3.5 c 0.0111,-2.2 0.21589,-2.98225 0.45508,-1.73834 0.23919,1.24391 0.23011,3.04391 -0.0202,4 -0.25029,0.95609 -0.446,-0.0617 -0.4349,-2.26166 z m -0.17323,-7.08333 c 0.048,-1.16495 0.28494,-1.4019 0.60416,-0.60417 0.28887,0.72187 0.25335,1.58438 -0.0789,1.91667 -0.3323,0.33229 -0.56864,-0.25834 -0.52522,-1.3125 z M 224.38176,556.5 c 0.002,-6.6 0.16382,-9.16987 0.35965,-5.71081 0.19583,3.45905 0.19422,8.85905 -0.004,12 -0.19781,3.14094 -0.35803,0.31081 -0.35606,-6.28919 z m -0.0821,-19.5 c 0,-3.025 0.18747,-4.2625 0.41659,-2.75 0.22913,1.5125 0.22913,3.9875 0,5.5 -0.22912,1.5125 -0.41659,0.275 -0.41659,-2.75 z m 0.0553,-17.5 c -0.003,-4.95 0.16605,-7.10108 0.37577,-4.78017 0.20972,2.3209 0.21222,6.3709 0.006,9 -0.20667,2.62909 -0.37827,0.73017 -0.38131,-4.21983 z m 575.72399,-2.08333 c 0.048,-1.16495 0.28494,-1.4019 0.60416,-0.60417 0.28887,0.72187 0.25335,1.58438 -0.0789,1.91667 -0.33229,0.33229 -0.56864,-0.25834 -0.52522,-1.3125 z m -576,-10 c 0.048,-1.16495 0.28494,-1.4019 0.60416,-0.60417 0.28887,0.72187 0.25335,1.58438 -0.0789,1.91667 -0.3323,0.33229 -0.56864,-0.25834 -0.52522,-1.3125 z m 0,-4 c 0.048,-1.16495 0.28494,-1.4019 0.60416,-0.60417 0.28887,0.72187 0.25335,1.58438 -0.0789,1.91667 -0.3323,0.33229 -0.56864,-0.25834 -0.52522,-1.3125 z m 576,-2 c 0.048,-1.16495 0.28494,-1.4019 0.60416,-0.60417 0.28887,0.72187 0.25335,1.58438 -0.0789,1.91667 -0.33229,0.33229 -0.56864,-0.25834 -0.52522,-1.3125 z M 224.37407,485.5 c 0.002,-6.05 0.16696,-8.39607 0.36601,-5.21349 0.19905,3.18258 0.1972,8.13258 -0.004,11 -0.20131,2.86742 -0.36417,0.26349 -0.36191,-5.78651 z M 800.15789,475 c 0,-1.375 0.22698,-1.9375 0.50439,-1.25 0.27741,0.6875 0.27741,1.8125 0,2.5 -0.27741,0.6875 -0.50439,0.125 -0.50439,-1.25 z m -575.90571,-5.5 c 0.0111,-2.2 0.21589,-2.98225 0.45508,-1.73834 0.23919,1.24391 0.23011,3.04391 -0.0202,4 -0.25029,0.95609 -0.446,-0.0617 -0.4349,-2.26166 z M 800.27236,468 c 0,-2.475 0.19502,-3.4875 0.43337,-2.25 0.23836,1.2375 0.23836,3.2625 0,4.5 -0.23835,1.2375 -0.43337,0.225 -0.43337,-2.25 z m -576.02018,-6.5 c 0.0111,-2.2 0.21589,-2.98225 0.45508,-1.73834 0.23919,1.24391 0.23011,3.04391 -0.0202,4 -0.25029,0.95609 -0.446,-0.0617 -0.4349,-2.26166 z M 800.33621,456 c 0,-4.125 0.17651,-5.8125 0.39226,-3.75 0.21574,2.0625 0.21574,5.4375 0,7.5 -0.21575,2.0625 -0.39226,0.375 -0.39226,-3.75 z M 224.41127,439 c 0,-9.625 0.14998,-13.5625 0.3333,-8.75 0.18331,4.8125 0.18331,12.6875 0,17.5 -0.18332,4.8125 -0.3333,0.875 -0.3333,-8.75 z m -0.15909,-21.5 c 0.0111,-2.2 0.21589,-2.98225 0.45508,-1.73834 0.23919,1.24391 0.23011,3.04391 -0.0202,4 -0.25029,0.95609 -0.446,-0.0617 -0.4349,-2.26166 z M 224.232,406 c 0,-1.925 0.2058,-2.7125 0.45733,-1.75 0.25152,0.9625 0.25152,2.5375 0,3.5 -0.25153,0.9625 -0.45733,0.175 -0.45733,-1.75 z m 575.92589,-7 c 0,-1.375 0.22698,-1.9375 0.50439,-1.25 0.27741,0.6875 0.27741,1.8125 0,2.5 -0.27741,0.6875 -0.50439,0.125 -0.50439,-1.25 z m -575.96294,-1.5 c 0.0204,-1.65 0.2445,-2.20394 0.49804,-1.23097 0.25354,0.97297 0.23687,2.32297 -0.0371,3 -0.27393,0.67703 -0.48137,-0.11903 -0.46099,-1.76903 z m 576.09106,-9 c 0.008,-2.75 0.20172,-3.75631 0.43157,-2.23625 0.22986,1.52006 0.22371,3.77006 -0.0136,5 -0.23736,1.22994 -0.42542,-0.0138 -0.41792,-2.76375 z m -576.03383,0 c 0.0111,-2.2 0.21589,-2.98225 0.45508,-1.73834 0.23919,1.24391 0.23011,3.04391 -0.0202,4 -0.25029,0.95609 -0.446,-0.0617 -0.4349,-2.26166 z m 0.15491,-20.5 c 0,-9.075 0.1516,-12.7875 0.3369,-8.25 0.18529,4.5375 0.18529,11.9625 0,16.5 -0.1853,4.5375 -0.3369,0.825 -0.3369,-8.25 z m 576.00799,-3 c 0,-10.175 0.1485,-14.3375 0.32999,-9.25 0.18149,5.0875 0.18149,13.4125 0,18.5 -0.18149,5.0875 -0.32999,0.925 -0.32999,-9.25 z M 224.15789,347 c 0,-1.375 0.22698,-1.9375 0.50439,-1.25 0.27741,0.6875 0.27741,1.8125 0,2.5 -0.27741,0.6875 -0.50439,0.125 -0.50439,-1.25 z m 0.92106,-11.58333 c 0.048,-1.16495 0.28494,-1.4019 0.60416,-0.60417 0.28887,0.72187 0.25335,1.58438 -0.0789,1.91667 -0.3323,0.33229 -0.56864,-0.25834 -0.52522,-1.3125 z"
       id="path2" />
    <path
       style="fill:#050505"
       d="m 332.5,793.76188 c -48.26978,-3.95875 -89.65611,-37.30013 -102.85518,-82.86149 -5.13407,-17.72209 -5.00194,-12.34856 -4.85706,-197.53778 0.14742,-188.44773 -0.007,-183.07564 5.76978,-201.35714 3.91764,-12.39901 6.73687,-18.25542 14.14458,-29.38267 15.91274,-23.9028 40.16457,-40.85302 70.01038,-48.93202 L 326.5,230.5 504,230.19353 c 129.04222,-0.22281 180.06409,0.007 186.89221,0.8402 50.38949,6.15191 90.30062,38.65129 103.96919,84.66145 5.56235,18.72355 5.3877,12.43109 5.51782,198.80482 0.1315,188.34783 0.4109,178.50822 -5.60819,197.5 -12.22239,38.56476 -43.85367,67.80772 -84.52485,78.14278 -9.72035,2.47006 -14.41942,3.0696 -27.24618,3.47622 -25.59206,0.81131 -340.78307,0.9398 -350.5,0.14288 z m 365.11901,-2.30866 c 22.55225,-3.92787 40.64767,-11.6283 56.97095,-24.24377 22.97213,-17.75402 37.809,-42.61829 42.92006,-71.92724 2.27058,-13.02047 2.23395,-347.34211 -0.0397,-362.47993 -2.67899,-17.83642 -10.90696,-38.025 -21.19058,-51.9943 C 760.65319,259.58083 737.05959,243.41312 711.67281,236.53556 690.60367,230.8277 696.86284,231 510.57894,231 c -112.8365,0 -174.10797,0.35496 -179.25658,1.03848 -18.10029,2.40297 -32.59463,7.25487 -48.08839,16.09732 -28.16739,16.07542 -46.67183,41.73366 -54.39296,75.42125 l -2.27891,9.94295 -0.24771,177 c -0.23647,168.96194 -0.16317,177.45413 1.61398,187 2.04834,11.00259 4.69238,19.29047 9.612,30.12941 14.85347,32.7252 50.57598,58.79921 88.04438,64.26397 3.25339,0.4745 86.2938,0.91761 184.53426,0.98468 157.04942,0.10721 179.69146,-0.0648 187.5,-1.42484 z M 291.65499,713.17126 c -1.52005,-1.67964 -1.65374,-11.23944 -1.63968,-117.25 0.008,-63.48169 0.34592,-115.92709 0.75,-116.54532 1.13636,-1.73863 25.54637,-12.46426 26.40737,-11.60326 0.41925,0.41925 0.88942,32.47942 1.0448,71.2448 L 318.5,609.5 l 2.66516,5.68554 c 3.39298,7.23816 10.5984,14.15995 17.75533,17.0564 L 344.5,634.5 h 168 168 l 5.66136,-2.78069 c 6.21747,-3.05383 11.5108,-8.30457 15.04533,-14.92425 L 703.5,612.5 703.76604,493.56108 c 0.23868,-106.7079 0.10106,-119.5064 -1.3382,-124.45729 -4.75779,-16.36622 -16.17679,-28.47494 -31.24075,-33.12772 C 665.03578,334.07612 661.63348,334 582.86328,334 c -71.47316,0 -81.99864,-0.18916 -82.49497,-1.48259 -0.33849,-0.88208 1.09908,-3.37756 3.54916,-6.161 2.26496,-2.57312 6.28724,-8.99345 8.93842,-14.2674 l 4.82033,-9.58901 71.41189,-0.28344 c 75.67371,-0.30036 82.52769,0.009 94.21772,4.24887 12.36204,4.4839 18.75725,8.5579 28.27648,18.01323 7.41711,7.36731 9.84462,10.57978 13.24006,17.52134 8.37402,17.11962 7.63633,-0.97719 7.94011,194.78498 0.18695,120.47966 -0.0542,174.89162 -0.7812,176.25 C 731.02363,714.82437 729.8334,715 718.66482,715 c -8.20597,0 -12.66194,-0.39712 -13.46482,-1.2 -0.74769,-0.74769 -1.2,-4.44856 -1.2,-9.8185 0,-14.55093 -3.93775,-23.67375 -11.96996,-27.7315 -4.33632,-2.19064 -5.28013,-2.25 -35.77405,-2.25 -33.52919,0 -35.4602,0.24809 -39.95714,5.13358 -4.34642,4.72195 -6.60656,11.75408 -7.22025,22.46482 -0.3619,6.31635 -1.09261,10.71695 -1.95104,11.75 -1.25838,1.51432 -9.29707,1.6516 -96.71482,1.6516 -89.79353,0 -95.39463,-0.10185 -96.24028,-1.75 -0.49384,-0.9625 -1.17714,-5.87548 -1.51844,-10.91774 -0.99731,-14.73428 -5.85131,-24.21039 -13.96912,-27.27093 C 396.93131,674.4002 384.70944,674 366.27276,674 h -29.59704 l -4.25083,2.49115 C 325.11387,680.77569 321,690.59005 321,703.74724 321,715.17458 321.23086,715 306.1198,715 c -11.13996,0 -13.02557,-0.23839 -14.46481,-1.82874 z m 27.30983,-1.10552 C 319.53417,711.0019 320,706.55357 320,702.18058 c 0,-9.77239 2.14254,-16.81883 6.75096,-22.20274 6.36071,-7.43106 6.39963,-7.43915 37.50038,-7.79841 32.81634,-0.37908 36.35312,0.20399 42.12248,6.94419 4.77559,5.57921 6.71057,11.60709 7.34344,22.87638 0.29342,5.225 0.98218,10.0625 1.53056,10.75 0.78512,0.98428 21.00618,1.24674 95.12462,1.23469 51.77016,-0.008 94.64265,-0.34592 95.2722,-0.75 0.63804,-0.40952 1.60106,-5.7867 2.17588,-12.14929 1.55333,-17.19367 6.35657,-25.09574 17.06185,-28.06937 4.7358,-1.31547 58.49946,-1.31547 63.23526,0 6.27257,1.74235 10.19423,5.10769 13.38237,11.48397 2.65196,5.30391 3.03983,7.21816 3.34331,16.5 0.18882,5.775 0.80642,11.0625 1.37244,11.75 1.52598,1.85347 23.13445,1.73789 24.68635,-0.13204 0.85533,-1.0306 1.07547,-45.467 0.86573,-174.75 L 731.48658,364.5 729.27129,356.69952 C 721.06653,327.8089 697.65213,308.00624 667,304.03375 c -4.22249,-0.54724 -38.3086,-0.98147 -78,-0.99367 l -70.5,-0.0217 -3.8444,8.40804 c -2.11442,4.62442 -6.05192,11.14754 -8.75,14.49582 -2.69808,3.34829 -4.90553,6.19803 -4.90545,6.33276 9e-5,0.13473 37.01259,0.24496 82.25,0.24496 77.81337,0 82.54652,0.10118 87.74985,1.87581 12.92035,4.40658 23.2676,13.31618 28.98658,24.95919 6.23874,12.70118 6.08953,9.19547 5.7877,135.98915 L 705.5,610.54337 l -3.292,6.68634 c -3.579,7.26928 -8.57933,12.23594 -16.07188,15.96369 L 681.5,635.5 l -167.46029,0.26155 -167.46028,0.26155 -6.30327,-2.09759 c -8.06818,-2.68492 -16.0855,-9.80088 -19.98192,-17.73542 L 317.5,610.5 317.21822,539.25 C 317.06323,500.0625 316.69337,468 316.39629,468 c -0.29708,0 -2.42028,1.06044 -4.71822,2.35653 -2.29794,1.2961 -7.66557,3.85242 -11.92807,5.68072 l -7.75,3.32419 v 116.73594 c 0,92.45309 0.26002,116.84087 1.25,117.24034 0.6875,0.27741 6.52167,0.53991 12.96482,0.58333 10.60394,0.0715 11.81298,-0.10447 12.75,-1.85531 z m 27.70532,-90.68894 c -3.11967,-0.95846 -6.37153,-3.02556 -9.18378,-5.83781 C 329.79472,607.84735 330,610.18308 330,530.35768 v -70.27932 l 10.05688,-5.78918 C 353.83761,446.35639 381.09837,428.3178 395.27659,417.75 L 407.01597,409 h 75.933 c 41.76315,0 76.15815,0.36431 76.43334,0.80958 0.27519,0.44526 -0.57675,3.03276 -1.89321,5.75 -2.58753,5.34077 -5.29684,16.96602 -4.20781,18.05505 0.36851,0.3685 6.41847,1.48022 13.44436,2.47048 21.5799,3.04157 33.68537,6.46371 46.6599,13.19047 14.93869,7.74509 26.51829,22.3653 29.67079,37.46184 2.69172,12.89 -0.82637,36.02919 -8.66928,57.0196 -9.46865,25.34149 -29.07422,57.92843 -44.81786,74.49298 L 585.0546,623 468.2773,622.9303 C 368.01403,622.8705 350.81699,622.6508 346.67014,621.37675 Z M 592.32237,613.5 c 10.25852,-11.84583 21.82055,-29.89364 31.0707,-48.5 11.93744,-24.01174 17.55349,-42.3822 19.17632,-62.72702 2.2346,-28.01417 -15.7269,-49.98722 -48.56939,-59.417 -7.06707,-2.0291 -24.22673,-5.33578 -33,-6.35911 -8.72805,-1.01807 -9,-1.18072 -9,-5.38276 0,-4.71909 2.57607,-13.60841 5.17691,-17.86411 l 1.98621,-3.25 h -75.65144 -75.65144 l -14.43114,10.5348 c -17.95874,13.10996 -37.78247,26.12335 -51.74033,33.9652 l -10.67951,6 0.24537,71.5 c 0.22801,66.44028 0.37296,71.78306 2.04842,75.5 3.22978,7.16516 8.6232,11.57156 16.41445,13.41054 2.12482,0.50152 54.59625,0.82632 119.72967,0.74112 L 585.39435,621.5 Z M 509,601.9393 c -8.79682,-0.86696 -13.67074,-2.34463 -19.10886,-5.79338 -7.16584,-4.54444 -11.18636,-12.84922 -9.49092,-19.6044 l 0.64429,-2.56706 35.14469,0.26277 35.14469,0.26277 0.93722,2.81251 c 1.29019,3.87169 0.0704,10.88783 -2.5714,14.79073 -5.15117,7.61013 -21.99103,11.67989 -40.69971,9.83606 z m 22.48491,-1.9309 c 7.70806,-1.26218 14.42378,-4.74957 17.26509,-8.96557 1.7468,-2.59194 2.25,-4.75921 2.25,-9.69071 V 575 h -34.5 c -38.4501,0 -35.09022,-0.68093 -34.54003,7 0.64823,9.04959 8.72445,15.77996 21.50635,17.92245 7.13307,1.19564 20.98231,1.23813 28.01859,0.086 z M 422.65639,555.48276 c -16.2988,-4.12495 -32.12237,-16.52635 -39.05386,-30.60767 -9.41651,-19.12965 -8.26659,-39.41016 3.23343,-57.02642 21.26911,-32.58102 66.46313,-37.17508 94.2363,-9.57932 23.09986,22.9523 23.76506,58.09969 1.52001,80.31271 -7.85316,7.84185 -13.56743,11.54481 -23.4727,15.21078 -8.47243,3.13567 -27.3024,4.00836 -36.46318,1.68992 z m 28.81492,-0.9942 c 16.82188,-3.56333 32.87229,-15.54498 39.87247,-29.76485 4.52653,-9.195 5.60733,-14.05681 5.60733,-25.22371 0,-11.22538 -1.07867,-16.02462 -5.72094,-25.45364 -9.31325,-18.91637 -32.1893,-32.95521 -53.82021,-33.029 -7.15668,-0.0244 -18.88831,3.1913 -27.54561,7.55042 -10.08268,5.07684 -20.17924,15.3021 -25.1121,25.43222 -4.58102,9.40757 -5.69702,14.28633 -5.7278,25.0399 -0.0461,16.10234 4.93508,28.0106 16.57195,39.61778 14.48643,14.44947 34.98228,20.25651 55.87491,15.83088 z M 433.5,542.93049 c -17.18977,-1.7036 -30.23462,-10.53618 -37.64367,-25.48826 -3.43152,-6.92509 -4.23565,-9.67242 -4.6301,-15.81872 -1.44923,-22.58208 15.55101,-42.70993 39.52377,-46.79513 20.32999,-3.46444 40.7858,7.52098 50.02152,26.86314 3.53551,7.40435 3.72848,8.32604 3.72848,17.80848 0,9.15279 -0.2681,10.5659 -3.16452,16.67961 C 472.646,534.52119 453.97931,544.9601 433.5,542.93049 Z m 16.85566,-2.51262 c 8.30506,-2.13849 15.30109,-6.30433 21.37786,-12.72962 16.4466,-17.38986 15.8845,-40.95749 -1.39421,-58.45556 -25.90563,-26.23451 -71.15694,-12.36057 -77.49875,23.76092 -5.19571,29.59353 26.20621,55.48608 57.5151,47.42426 z m -21.33768,-25.49482 c -8.98107,-4.07377 -12.44907,-9.81191 -11.82772,-19.57007 0.74271,-11.66404 9.30318,-19.49584 21.30974,-19.49584 11.11469,0 20.0258,7.75615 21.23482,18.48258 1.78631,15.84803 -15.5481,27.4638 -30.71684,20.58333 z m 20.49277,-2.40332 c 11.24397,-6.51415 11.52902,-24.83265 0.49999,-32.13132 -5.79054,-3.832 -14.91872,-4.35862 -20.99736,-1.21138 -13.78911,7.13936 -14.67327,26.73457 -1.51574,33.59264 7.20268,3.75424 15.25946,3.66276 22.01311,-0.24994 z m 121.84744,10.48675 c -9.40399,-2.12404 -14.89794,-9.86773 -14.1673,-19.96869 0.5567,-7.69641 3.63712,-12.26669 10.57522,-15.68995 4.2588,-2.1013 6.07597,-2.47033 9.5,-1.92929 5.94829,0.93992 11.11485,4.67123 13.61274,9.83119 6.95485,14.36681 -4.80025,31.08159 -19.52066,27.75674 z m 11.72013,-3.28028 c 6.88676,-4.64098 10.06101,-12.78134 7.98716,-20.48303 C 588.93693,491.33835 583.2205,487 574.93325,487 c -9.80735,0 -16.43688,7.0326 -16.42815,17.42697 0.004,4.31157 0.59988,7.08803 2.05573,9.57247 4.39669,7.50307 15.6389,10.36224 22.51749,5.72676 z M 290.40831,462.62164 c -0.29091,-0.75809 -0.36583,-23.59559 -0.16648,-50.75 0.40579,-55.27582 0.2895,-54.24643 7.88002,-69.74974 7.115,-14.53205 21.6231,-27.77285 37.99447,-34.67558 12.30913,-5.18996 15.48833,-5.3737 93.63368,-5.41143 65.64771,-0.0317 72.25,0.11166 72.25,1.56888 0,3.49543 -7.70004,15.95598 -14.04841,22.73376 L 481.24291,333.5 417.37146,334 c -63.30735,0.49558 -63.92004,0.51981 -69.37146,2.74288 -12.03423,4.90751 -23.04572,16.6615 -27.18182,29.0147 -2.15046,6.42273 -2.28265,8.63904 -2.78784,46.74242 l -0.53034,40 -11.5,5.72811 c -11.93618,5.94537 -14.6976,6.7235 -15.59169,4.39353 z m 14.79054,-5.2711 11.69884,-5.66834 0.32036,-40.5911 c 0.31793,-40.28296 0.33889,-40.63876 2.76086,-46.86973 5.14164,-13.22785 15.93456,-23.95544 29.52109,-29.34241 l 6,-2.37896 62.66857,-0.29208 62.66856,-0.29208 6.33144,-6.71361 C 492.35365,319.70416 501,306.17619 501,303.56175 c 0,-0.35518 -33.4125,-0.49057 -74.25,-0.30088 -83.1222,0.38612 -79.77832,0.11366 -95.25,7.76083 -17.74582,8.77122 -30.73166,23.81305 -37.10379,42.9783 -1.64567,4.94964 -1.88207,10.67847 -2.36243,57.2506 -0.35262,34.18688 -0.19439,51.75361 0.46622,51.75944 0.55,0.005 6.26448,-2.54192 12.69885,-5.6595 z M 330.22639,426.75 330.5,409.5 l 25,-0.0258 25,-0.0258 -24.75,0.29293 -24.75,0.29292 v 16.48283 c 0,9.06556 0.27501,16.48283 0.61112,16.48283 1.72835,0 30.34634,-18.21631 45.13888,-28.7324 3.4375,-2.44373 6.25,-4.04517 6.25,-3.55874 C 383,412.82828 334.72355,444 331.44116,444 c -1.2709,0 -1.44841,-2.5206 -1.21477,-17.25 z m 0.10948,-31.31712 c -1.05635,-2.75281 0.40251,-19.7525 2.14148,-24.95406 3.38725,-10.13185 12.07947,-18.96713 22.31987,-22.68723 4.23407,-1.53814 9.88541,-1.69092 56.70278,-1.53295 l 52,0.17547 -53,0.53294 c -51.76922,0.52057 -53.10954,0.58356 -57.71723,2.71222 -6.50655,3.00591 -14.27865,10.56035 -17.17536,16.69434 C 332.75124,372.42178 331,381.09168 331,389.18366 V 395 h 35.66152 35.66151 l 8.08849,-6.22353 c 4.44866,-3.42294 17.18546,-13.30239 28.30399,-21.95435 C 458.95928,351.06931 464,347.36416 464,348.23688 c 0,0.45941 -13.55595,11.11726 -45.90963,36.09469 L 401.68074,397 h -35.37176 c -31.19243,0 -35.4428,-0.18516 -35.97311,-1.56712 z M 428.5,396 c 0.40694,-0.65844 45.38152,-1 131.67244,-1 h 131.0544 l -0.40037,-10.25 c -0.32726,-8.37846 -0.87477,-11.27615 -2.99858,-15.87001 -2.98662,-6.46012 -8.64468,-13.10797 -14.07276,-16.53457 -8.49173,-5.3606 -8.24338,-5.34748 -100.71523,-5.32003 l -85.5399,0.0254 -6,5.03087 c -3.3,2.76698 -15,12.06731 -26,20.6674 -11,8.60009 -21.98631,17.23727 -24.41402,19.19373 -2.42771,1.95647 -4.22771,3.04667 -4,2.42267 0.22771,-0.624 11.21402,-9.58238 24.41402,-19.90752 13.2,-10.32514 26.52082,-20.96159 29.60182,-23.63655 l 5.60182,-4.86356 88.89818,0.27108 L 664.5,346.5 l 6.30048,2.90922 c 7.33431,3.38658 13.76063,9.95045 17.77492,18.15537 2.12218,4.33758 2.82577,7.64024 3.44954,16.1922 0.51255,7.027 0.42845,11.1756 -0.24311,11.99321 -1.32341,1.61122 -264.27742,1.8609 -263.28183,0.25 z"
       id="path1" />
  </g>
  <style
     id="style1">@media (prefers-color-scheme: light) { :root { filter: none; } }
@media (prefers-color-scheme: dark) { :root { filter: none; } }
</style>
</svg>
